/* XPM */
static char * archive_xpm[] = {
"48 48 710 2",
"  	c None",
". 	c #6E7764",
"+ 	c #6C7663",
"@ 	c #4A5144",
"# 	c #4B5147",
"$ 	c #444A3E",
"% 	c #42483C",
"& 	c #353930",
"* 	c #1D201B",
"= 	c #000000",
"- 	c #4D5246",
"; 	c #60635E",
"> 	c #A2A69E",
", 	c #B3BAAF",
"' 	c #8F9A84",
") 	c #7D8772",
"! 	c #6C7562",
"~ 	c #0F100E",
"{ 	c #1B1D18",
"] 	c #5D6259",
"^ 	c #C5CAC2",
"/ 	c #CACFC8",
"( 	c #C2C8BF",
"_ 	c #95A18C",
": 	c #8C9880",
"< 	c #77816D",
"[ 	c #1A1D18",
"} 	c #080908",
"| 	c #5A5F55",
"1 	c #9FA39C",
"2 	c #B9BEB6",
"3 	c #B3BCAE",
"4 	c #8A967E",
"5 	c #76806C",
"6 	c #040504",
"7 	c #484E42",
"8 	c #88907F",
"9 	c #97A18F",
"0 	c #7E8973",
"a 	c #5E6656",
"b 	c #1F231D",
"c 	c #070706",
"d 	c #232621",
"e 	c #3E433A",
"f 	c #353A32",
"g 	c #31342D",
"h 	c #151713",
"i 	c #3A3E37",
"j 	c #818580",
"k 	c #4F544F",
"l 	c #3D433D",
"m 	c #3A3E36",
"n 	c #6D716C",
"o 	c #D0D2D0",
"p 	c #C2C5C2",
"q 	c #898B89",
"r 	c #4B4F49",
"s 	c #474A45",
"t 	c #4B4C4B",
"u 	c #2D2F2D",
"v 	c #191A19",
"w 	c #2E332D",
"x 	c #212120",
"y 	c #2C2D2C",
"z 	c #2A2B29",
"A 	c #272927",
"B 	c #181818",
"C 	c #0E0E0E",
"D 	c #141613",
"E 	c #686B66",
"F 	c #C4C5C4",
"G 	c #B1B3B1",
"H 	c #6B6E6B",
"I 	c #242622",
"J 	c #3F433C",
"K 	c #656961",
"L 	c #AFB7A9",
"M 	c #B0B8AA",
"N 	c #B0B8A9",
"O 	c #92978E",
"P 	c #494947",
"Q 	c #2B2D29",
"R 	c #4B4E49",
"S 	c #4A4F48",
"T 	c #030403",
"U 	c #595F54",
"V 	c #A4AB9E",
"W 	c #9CA094",
"X 	c #9CA395",
"Y 	c #A0A999",
"Z 	c #9CA494",
"` 	c #BEC3B9",
" .	c #A1A39F",
"..	c #717370",
"+.	c #474845",
"@.	c #242522",
"#.	c #161815",
"$.	c #2E322A",
"%.	c #505849",
"&.	c #272B24",
"*.	c #020201",
"=.	c #22251F",
"-.	c #79826D",
";.	c #5C5D50",
">.	c #322F2A",
",.	c #161613",
"'.	c #141511",
").	c #252721",
"!.	c #7E8479",
"~.	c #D1D5CF",
"{.	c #DCDFDB",
"].	c #C8CCC6",
"^.	c #A7AEA0",
"/.	c #88937C",
"(.	c #87927B",
"_.	c #8E9A83",
":.	c #8F9B84",
"<.	c #7C8672",
"[.	c #1F221D",
"}.	c #000100",
"|.	c #111210",
"1.	c #565D4F",
"2.	c #5B5B4F",
"3.	c #272520",
"4.	c #010000",
"5.	c #0D0F0C",
"6.	c #646A5F",
"7.	c #8E928B",
"8.	c #8F948C",
"9.	c #888E85",
"0.	c #78826F",
"a.	c #86927A",
"b.	c #6B7562",
"c.	c #97A28F",
"d.	c #9FA995",
"e.	c #9BA591",
"f.	c #95A08A",
"g.	c #6F7965",
"h.	c #22241C",
"i.	c #090906",
"j.	c #2B2F27",
"k.	c #5F6053",
"l.	c #403B34",
"m.	c #0D0C0B",
"n.	c #131412",
"o.	c #71756D",
"p.	c #ADB3A7",
"q.	c #9FA797",
"r.	c #67705F",
"s.	c #232620",
"t.	c #0B0C0A",
"u.	c #3B4036",
"v.	c #757D6E",
"w.	c #A1AB99",
"x.	c #A1AA98",
"y.	c #99A490",
"z.	c #8A957F",
"A.	c #5D624D",
"B.	c #12130E",
"C.	c #3B4035",
"D.	c #4A463E",
"E.	c #090909",
"F.	c #161615",
"G.	c #3F433F",
"H.	c #434942",
"I.	c #404640",
"J.	c #2B2E2B",
"K.	c #0B0C0B",
"L.	c #181A16",
"M.	c #787F71",
"N.	c #A5AF9D",
"O.	c #97A18E",
"P.	c #8A937E",
"Q.	c #6F745D",
"R.	c #0C0D09",
"S.	c #5B6152",
"T.	c #454139",
"U.	c #433F37",
"V.	c #171917",
"W.	c #4D504D",
"X.	c #191B19",
"Y.	c #111311",
"Z.	c #020202",
"`.	c #1C1F1B",
" +	c #929B88",
".+	c #8C9480",
"++	c #808771",
"@+	c #5E614F",
"#+	c #010100",
"$+	c #595B4E",
"%+	c #3B322F",
"&+	c #423C36",
"*+	c #797A79",
"=+	c #B7BAB7",
"-+	c #B0B3B0",
";+	c #6A6C6A",
">+	c #101010",
",+	c #1B1D1B",
"'+	c #080907",
")+	c #787D64",
"!+	c #868D79",
"~+	c #717864",
"{+	c #0A0A08",
"]+	c #676C5C",
"^+	c #372F2B",
"/+	c #403C34",
"(+	c #0D0E0C",
"_+	c #21251F",
":+	c #222322",
"<+	c #515351",
"[+	c #4F524F",
"}+	c #212321",
"|+	c #101110",
"1+	c #0C0D0C",
"2+	c #3A3C2E",
"3+	c #7C816B",
"4+	c #7B806A",
"5+	c #0F110D",
"6+	c #676A5B",
"7+	c #352C29",
"8+	c #423D36",
"9+	c #050505",
"0+	c #171916",
"a+	c #202320",
"b+	c #999A98",
"c+	c #C3C3C3",
"d+	c #CFD3CF",
"e+	c #B7BCB7",
"f+	c #939893",
"g+	c #525252",
"h+	c #1F221F",
"i+	c #363B36",
"j+	c #3E443E",
"k+	c #040402",
"l+	c #71755E",
"m+	c #626352",
"n+	c #0A0C09",
"o+	c #060605",
"p+	c #5B5C4F",
"q+	c #362D2A",
"r+	c #3B352F",
"s+	c #303430",
"t+	c #9EA69E",
"u+	c #BAC1BA",
"v+	c #BBC1BA",
"w+	c #9CA69C",
"x+	c #858F85",
"y+	c #666F66",
"z+	c #575D57",
"A+	c #434943",
"B+	c #141614",
"C+	c #0F100D",
"D+	c #636654",
"E+	c #5A594A",
"F+	c #080807",
"G+	c #5C5C50",
"H+	c #3C3430",
"I+	c #302A26",
"J+	c #21241F",
"K+	c #40453E",
"L+	c #899589",
"M+	c #C6CCC6",
"N+	c #D0D4D0",
"O+	c #B3BBB3",
"P+	c #949F94",
"Q+	c #757F75",
"R+	c #737A73",
"S+	c #5E665E",
"T+	c #4A504A",
"U+	c #2C302C",
"V+	c #2D312D",
"W+	c #2B2F2B",
"X+	c #242721",
"Y+	c #050504",
"Z+	c #515647",
"`+	c #494A3D",
" @	c #050404",
".@	c #6E7063",
"+@	c #292824",
"@@	c #484947",
"#@	c #B8BCB4",
"$@	c #3A3F36",
"%@	c #717B6E",
"&@	c #A1ABA1",
"*@	c #B7BEB7",
"=@	c #BAC0BA",
"-@	c #A9AEA9",
";@	c #9BA19B",
">@	c #868B86",
",@	c #737873",
"'@	c #4F564F",
")@	c #3C423C",
"!@	c #484E48",
"~@	c #4E554E",
"{@	c #3A3F3A",
"]@	c #61675C",
"^@	c #B4BAAC",
"/@	c #2B2D28",
"(@	c #44483A",
"_@	c #414438",
":@	c #0A0B09",
"<@	c #161915",
"[@	c #090908",
"}@	c #252622",
"|@	c #92938F",
"1@	c #F7F7F6",
"2@	c #FBFCFB",
"3@	c #8E9487",
"4@	c #262A24",
"5@	c #474D47",
"6@	c #8F968F",
"7@	c #9CA49C",
"8@	c #808980",
"9@	c #767F76",
"0@	c #717B71",
"a@	c #5D655D",
"b@	c #596159",
"c@	c #454C45",
"d@	c #3E433E",
"e@	c #464945",
"f@	c #E8EAE7",
"g@	c #F2F3F1",
"h@	c #3B3F38",
"i@	c #45483D",
"j@	c #3F4136",
"k@	c #1E201B",
"l@	c #393F34",
"m@	c #555C4D",
"n@	c #282D25",
"o@	c #1C201A",
"p@	c #070907",
"q@	c #030303",
"r@	c #8C8D8C",
"s@	c #F6F7F6",
"t@	c #EDEFEC",
"u@	c #A4B0AC",
"v@	c #9AA7A3",
"w@	c #D0D6D0",
"x@	c #7D8874",
"y@	c #40463C",
"z@	c #212320",
"A@	c #171A17",
"B@	c #1E201E",
"C@	c #353A35",
"D@	c #333833",
"E@	c #2C2E2C",
"F@	c #505A53",
"G@	c #7D8E87",
"H@	c #A1ADA9",
"I@	c #EAEBEA",
"J@	c #414439",
"K@	c #3F4035",
"L@	c #4F5246",
"M@	c #5E6655",
"N@	c #495043",
"O@	c #31382D",
"P@	c #1F221C",
"Q@	c #21261E",
"R@	c #121311",
"S@	c #575856",
"T@	c #575757",
"U@	c #BBBCBA",
"V@	c #EAECE9",
"W@	c #F9F9F8",
"X@	c #CAD0CE",
"Y@	c #909E9A",
"Z@	c #A0ADA9",
"`@	c #BCC5C2",
" #	c #C9CDC7",
".#	c #9A9D97",
"+#	c #82867E",
"@#	c #6B7267",
"##	c #555D52",
"$#	c #565D53",
"%#	c #6A736B",
"&#	c #717C75",
"*#	c #CDCECD",
"=#	c #F3F4F2",
"-#	c #EFF0F0",
";#	c #DADEDD",
">#	c #5E605D",
",#	c #232520",
"'#	c #3E4237",
")#	c #3E3F34",
"!#	c #363830",
"~#	c #292D25",
"{#	c #3F4539",
"]#	c #22251E",
"^#	c #33362C",
"/#	c #2C3127",
"(#	c #131511",
"_#	c #272A25",
":#	c #595F52",
"<#	c #585F53",
"[#	c #F3F4F3",
"}#	c #9A9B99",
"|#	c #898989",
"1#	c #9A9A99",
"2#	c #E2E2E2",
"3#	c #FDFDFD",
"4#	c #F0F2F1",
"5#	c #C0C8C5",
"6#	c #8A9994",
"7#	c #92A09B",
"8#	c #A0ACA8",
"9#	c #D8DDDB",
"0#	c #E8EBE6",
"a#	c #EFF0ED",
"b#	c #E9EBEA",
"c#	c #95A29E",
"d#	c #7F9089",
"e#	c #9BA8A4",
"f#	c #F2F2F2",
"g#	c #525350",
"h#	c #3A3A39",
"i#	c #3A3C39",
"j#	c #424539",
"k#	c #3D3E34",
"l#	c #32342B",
"m#	c #373D32",
"n#	c #1F211B",
"o#	c #3D3F34",
"p#	c #2A2E25",
"q#	c #151813",
"r#	c #51574C",
"s#	c #919D8F",
"t#	c #7D877E",
"u#	c #242723",
"v#	c #191A17",
"w#	c #979B93",
"x#	c #EBEDEA",
"y#	c #FFFFFF",
"z#	c #E2E2E1",
"A#	c #9D9D9C",
"B#	c #868686",
"C#	c #8B8B8A",
"D#	c #DDDEDD",
"E#	c #F3F4F4",
"F#	c #CCD3D1",
"G#	c #98A5A1",
"H#	c #82928D",
"I#	c #85958F",
"J#	c #BAC3C0",
"K#	c #EFF1EF",
"L#	c #EBEDEC",
"M#	c #636462",
"N#	c #2F2F2E",
"O#	c #454845",
"P#	c #494D3F",
"Q#	c #3D3D33",
"R#	c #2E3028",
"S#	c #1B1C18",
"T#	c #30322A",
"U#	c #767E6D",
"V#	c #919E86",
"W#	c #909E8D",
"X#	c #939E99",
"Y#	c #88928B",
"Z#	c #464B45",
"`#	c #3B3D3A",
" $	c #B1B4AE",
".$	c #F1F2F0",
"+$	c #FCFCFC",
"@$	c #DCDCDC",
"#$	c #A8A8A7",
"$$	c #878786",
"%$	c #BEBEBE",
"&$	c #D2D2D2",
"*$	c #F5F6F6",
"=$	c #CFD6D3",
"-$	c #ECEDED",
";$	c #F7F7F7",
">$	c #5F605D",
",$	c #3F403F",
"'$	c #2A2B2A",
")$	c #5E6663",
"!$	c #444947",
"~$	c #4A4F41",
"{$	c #3C3C33",
"]$	c #2A2822",
"^$	c #393A30",
"/$	c #303229",
"($	c #21251E",
"_$	c #0C0E0C",
":$	c #4D5248",
"<$	c #6F7669",
"[$	c #484D45",
"}$	c #42463E",
"|$	c #7F8979",
"1$	c #98A298",
"2$	c #95A09A",
"3$	c #929D95",
"4$	c #696F67",
"5$	c #1B1C19",
"6$	c #050605",
"7$	c #555852",
"8$	c #B0B5AC",
"9$	c #E1E4DF",
"0$	c #F4F4F4",
"a$	c #D0D0D0",
"b$	c #9B9D9A",
"c$	c #818280",
"d$	c #858584",
"e$	c #F3F3F3",
"f$	c #C7C8C7",
"g$	c #5B5D59",
"h$	c #363735",
"i$	c #313231",
"j$	c #636C66",
"k$	c #7D8477",
"l$	c #323432",
"m$	c #4A5042",
"n$	c #36332C",
"o$	c #34302A",
"p$	c #2C2E26",
"q$	c #161813",
"r$	c #6D7469",
"s$	c #929E9A",
"t$	c #97A29B",
"u$	c #97A197",
"v$	c #7F867D",
"w$	c #4C5149",
"x$	c #50564E",
"y$	c #8E978C",
"z$	c #949F9A",
"A$	c #6D756F",
"B$	c #333632",
"C$	c #181B19",
"D$	c #383A35",
"E$	c #80847B",
"F$	c #DBDED8",
"G$	c #D8D9D8",
"H$	c #868A83",
"I$	c #6D6E6B",
"J$	c #606060",
"K$	c #515150",
"L$	c #636B68",
"M$	c #9FA897",
"N$	c #4C5146",
"O$	c #22271F",
"P$	c #3E3E33",
"Q$	c #2C2522",
"R$	c #35332C",
"S$	c #1A1D17",
"T$	c #010201",
"U$	c #565C52",
"V$	c #98A39B",
"W$	c #95A19A",
"X$	c #99A49B",
"Y$	c #70796D",
"Z$	c #4F544B",
"`$	c #717770",
" %	c #89918B",
".%	c #808A86",
"+%	c #5C6460",
"@%	c #3E4340",
"#%	c #2C2F2D",
"$%	c #171918",
"%%	c #323431",
"&%	c #8C8F89",
"*%	c #F0F1EE",
"=%	c #E8E8E8",
"-%	c #444444",
";%	c #3D3F3D",
">%	c #434643",
",%	c #535957",
"'%	c #86907C",
")%	c #6D7566",
"!%	c #20241D",
"~%	c #2E2824",
"{%	c #191A15",
"]%	c #040404",
"^%	c #343731",
"/%	c #7B8379",
"(%	c #939E96",
"_%	c #939E9A",
":%	c #838E89",
"<%	c #666D66",
"[%	c #4D524B",
"}%	c #4A4D46",
"|%	c #636861",
"1%	c #969D94",
"2%	c #98A199",
"3%	c #747C76",
"4%	c #525955",
"5%	c #3C4240",
"6%	c #2E3230",
"7%	c #232623",
"8%	c #414340",
"9%	c #292A28",
"0%	c #363936",
"a%	c #666F6A",
"b%	c #8D9882",
"c%	c #707968",
"d%	c #282D24",
"e%	c #34362D",
"f%	c #39382F",
"g%	c #302C26",
"h%	c #1E211B",
"i%	c #3A3D39",
"j%	c #79827A",
"k%	c #939E98",
"l%	c #86918E",
"m%	c #606863",
"n%	c #474B47",
"o%	c #434642",
"p%	c #666A65",
"q%	c #989F95",
"r%	c #9EA59B",
"s%	c #828A83",
"t%	c #545B57",
"u%	c #292D2C",
"v%	c #545956",
"w%	c #737D74",
"x%	c #8F9A86",
"y%	c #767E6E",
"z%	c #31352C",
"A%	c #3A3D32",
"B%	c #3F4135",
"C%	c #36342C",
"D%	c #393E32",
"E%	c #121212",
"F%	c #3D3F3B",
"G%	c #71776F",
"H%	c #99A398",
"I%	c #96A29B",
"J%	c #7B8582",
"K%	c #545B5A",
"L%	c #3C413F",
"M%	c #414643",
"N%	c #5D635E",
"O%	c #9AA198",
"P%	c #9BA49C",
"Q%	c #97A09A",
"R%	c #2C3128",
"S%	c #404236",
"T%	c #424438",
"U%	c #3E3E34",
"V%	c #404539",
"W%	c #0C0D0B",
"X%	c #141414",
"Y%	c #313230",
"Z%	c #686D65",
"`%	c #95A095",
" &	c #939F99",
".&	c #939F9A",
"+&	c #919D99",
"@&	c #848F8C",
"#&	c #5F6764",
"$&	c #3D4240",
"%&	c #3F4441",
"&&	c #747B77",
"*&	c #99A096",
"=&	c #1E221C",
"-&	c #3F4438",
";&	c #43453A",
">&	c #3C3D33",
",&	c #45473B",
"'&	c #141813",
")&	c #252625",
"!&	c #8B958D",
"~&	c #94A09A",
"{&	c #7E8985",
"]&	c #464B4A",
"^&	c #262725",
"/&	c #33382D",
"(&	c #484C3F",
"_&	c #090A09",
":&	c #131313",
"<&	c #202120",
"[&	c #4B4F4B",
"}&	c #848E88",
"|&	c #5C605A",
"1&	c #2D3128",
"2&	c #4B5042",
"3&	c #43463A",
"4&	c #24281F",
"5&	c #0F0F0F",
"6&	c #323533",
"7&	c #747B75",
"8&	c #97A29A",
"9&	c #595C57",
"0&	c #32362D",
"a&	c #4C5344",
"b&	c #31362B",
"c&	c #0E110D",
"d&	c #060606",
"e&	c #2D2D2B",
"f&	c #676D65",
"g&	c #9DA79C",
"h&	c #565A55",
"i&	c #494F43",
"j&	c #373D31",
"k&	c #11140F",
"l&	c #2D2E2C",
"m&	c #41453E",
"n&	c #565B52",
"o&	c #99A093",
"p&	c #626660",
"q&	c #525A4C",
"r&	c #2C3228",
"s&	c #1E221B",
"t&	c #63695F",
"u&	c #3B3E38",
"v&	c #161715",
"w&	c #2A3027",
"x&	c #2A2F26",
"y&	c #3E3F3E",
"z&	c #252525",
"A&	c #010101",
"                                                                                                ",
"                                                                                                ",
"                                                                                                ",
"                                              . +                                               ",
"                                          @ # $ % & * =                                         ",
"                                        - ; > , ' ) ! ~ = = = = = =                             ",
"                                      { ] ^ / ( _ : < [ = = = = = =                             ",
"                          = = = = = = } | 1 2 3 4 4 5 6 = =                                     ",
"                        = = = = = = = = 7 8 9 : 0 a b = =                                       ",
"                        = = = = = =   = c d e f g h = =                                         ",
"                          = =             i j k l m =                                           ",
"                                          n o p q r                                             ",
"                                          s t u v w                                             ",
"                            x y z A B C D E F G H I =                                           ",
"                          J K L M M N O P Q R S d T = =                                         ",
"                        & U V W X Y Z `  ...+.@.#.$.%.&.*.=                                     ",
"                        =.-.;.>.,.'.).!.~.{.].^./.(._.:.<.[.}.=                                 ",
"                      |.1.2.3.4.4.4.5.6.7.8.9.0.a.b.c.d.e.f.g.h.i.=                             ",
"                      j.k.l.m.= =     n.o.p.q.r.s.t.u.v.w.x.y.z.A.B.=                           ",
"                    = C.D.l.= =         E.F.G.H.I.J.= K.L.M.N.O.P.Q.R.=                         ",
"                    = S.T.U.= =           V.W.G.X.Y.Z.= = = `. +.+++@+#+                        ",
"                    = $+%+&+= =           *+=+-+;+>+,+      = '+)+!+~+{+                        ",
"                    = ]+^+/+= =       (+_+:+<+[+}+|+1+=       = 2+3+4+5+                        ",
"                    #+6+7+8+= =   9+0+a+b+c+d+e+f+g+h+i+j+      k+l+m+n+                        ",
"                    o+p+q+r+= = o+D s+t+u+v+w+x+y+z+A+|+K.B+o+C+= D+E+F+                        ",
"                    Z.G+H+I+#+= J+K+L+M+N+O+P+Q+R+S+T+U+V+W+X+j.Y+Z+`+F+=                       ",
"                     @.@+@= @@#@$@%@&@*@=@-@;@>@,@'@)@!@~@{@]@^@/@(@_@:@t.<@=                   ",
"                    [@}@= |@1@2@3@4@5@6@P+7@8@9@0@a@b@c@d@e@f@g@h@i@j@k@l@m@n@o@p@              ",
"                  q@q@r@s@t@u@v@w@x@y@z@A@B@{@C@D@}+K.E@F@G@H@I@c J@K@L@M@N@O@P@Q@              ",
"              = R@q@S@T@U@V@W@X@Y@Z@`@ #.#+#@###$#%#&#*#=#-#;#>#,#'#)#!#~#{#]#^#/#              ",
"            (#_#:#<#g@[#}#|#1#2#3#4#5#6#7#8#9#0#a#b#c#d#e#f#g#h#i#j#k#l#m#n#o#p#q#=             ",
"          r#s#t#u#v#w#x#y#y#z#A#B#C#D#3#E#F#G#H#I#J#K#s@L#M#N#O#:@P#Q#R#S#k#T#[ q@=             ",
"        t.U#V#W#X#Y#Z#o+`# $.$y#+$@$#$$$%$&$+$3#*$=$-$;$>$,$'$)$!$~${$]$^$/$($_$=               ",
"        :$<$[$}$|$1$2$3$4$5$6$7$8$9$2@0$a$b$c$d$&$e$f$g$h$i$j$k$l$m$n$o$p$q$o+=                 ",
"        r$s$t$u$v$w$x$y$z$z$A$B$C$1+D$E$F$y#y#G$H$I$J$K$A L$M$N$O$P$Q$R$S$T$= =                 ",
"        U$V$W$s$s$s$X$Y$Z$`$ %2$.%+%@%#%$%%%&%*%=%-%;%>%,%'%)%!%p#~%~%{%]%= =                   ",
"        Y+^%/%(%s$_%s$s$:%<%[%}%|%1%2%3%4%5%6%7%8%9%0%a%b%c%d%e%f%g%h%Y+= =                     ",
"            o+v i%j%k%s$V$s$s$l%m%n%o%p%q%r%s%t%u%v%w%x%y%z%A%B%C%D%F+= =                       ",
"                = E%F%G%H%I%s$s$s$s$J%K%L%M%N%O%r%P%Q%Y$R%S%T%U%V%W%= =                         ",
"                    Z.X%Y%Z%`% &2$s$.&s$+&@&#&$&%&&&*&=&-&;&>&,&'&= =                           ",
"                        = E%)&W.!&s$t$s$s$.&~&s${&]&^&/&(&j#K@o@}.=                             ",
"                            _&:&<&[&}&s$s$~&s$.&s$s$|&1&2&3&4&6 =                               ",
"                                  5&)&6&7&8&s$s$s$.&9&0&a&b&c&=                                 ",
"                                      d&)&e&f&g&W$~&h&i&j&k&=                                   ",
"                                            l&m&n&o&p&q&r&s&=                                   ",
"                                                t&u&v&w&x&T$                                    ",
"                                                  y&z&A&=                                       ",
"                                                    A&                                          "};
