/* XPM */
static char * back_xpm[] = {
"19 19 4 1",
" 	c None",
".	c #395273",
"+	c #293952",
"@	c #425273",
"                   ",
"                   ",
"                   ",
"            ..+    ",
"          ....+    ",
"        ...@.+     ",
"      ...@..+      ",
"    ...............",
"  ..........@@@@@@.",
"++.................",
"  ++........@@@@@@.",
"    ++.......++++++",
"      ++.@...      ",
"        ++.@..     ",
"          ++..+    ",
"            +++    ",
"                   ",
"                   ",
"                   "};
