/* XPM */
static char * dotfile_xpm[] = {
"16 16 6 1",
" 	c none",
".	c #000000000000",
"X	c #A2A2A2A2A2A2",
"o	c #808080808080",
"O	c #FFFFFFFFFFFF",
"+	c #595959595959",
"                ",
"  .X.X.X..      ",
"  XoOoOo.o.     ",
"  .OoOoO.Oo.    ",
"  XoOoOo.OOo.   ",
"  .OoOoO.....+  ",
"  XoOoOoOoooX+o ",
"  .OoOoOoOoO.+o ",
"  XoOoOoOoOoX+o ",
"  .O...OoOoO.+o ",
"  Xo...oOoOoX+o ",
"  .O...OoOoO.+o ",
"  XoOoOoOoOoX+o ",
"  .X.X.X.X.X.+o ",
"   +++++++++++o ",
"    ooooooooooo "};
