/* XPM */
static char * folder24_xpm[] = {
"24 24 158 2",
"  	c None",
". 	c #868C86",
"+ 	c #828481",
"@ 	c #5A5A5A",
"# 	c #545454",
"$ 	c #424741",
"% 	c #98A397",
"& 	c #B3BDB2",
"* 	c #9C9F9C",
"= 	c #606260",
"- 	c #949A94",
"; 	c #646764",
"> 	c #939393",
", 	c #E9E9E9",
"' 	c #767975",
") 	c #7E877D",
"! 	c #95A194",
"~ 	c #98A697",
"{ 	c #606A5F",
"] 	c #8C958B",
"^ 	c #B1B9B1",
"/ 	c #6B6B6B",
"( 	c #848284",
"_ 	c #D4D4D4",
": 	c #DCDDDC",
"< 	c #999C99",
"[ 	c #737972",
"} 	c #848F83",
"| 	c #909B8F",
"1 	c #7E827E",
"2 	c #474847",
"3 	c #747C73",
"4 	c #A9B6A8",
"5 	c #B6BEB6",
"6 	c #BABCBA",
"7 	c #A4A4A4",
"8 	c #CCCCCC",
"9 	c #C0C1C0",
"0 	c #676D66",
"a 	c #7A8379",
"b 	c #A9B4A8",
"c 	c #979B97",
"d 	c #515251",
"e 	c #0A0A0A",
"f 	c #5C635B",
"g 	c #9AA699",
"h 	c #ABB9AA",
"i 	c #B3BFB2",
"j 	c #CED6CD",
"k 	c #ACACAC",
"l 	c #A8A9A8",
"m 	c #D8D9D8",
"n 	c #E8E8E7",
"o 	c #9FA19E",
"p 	c #6E736E",
"q 	c #939D92",
"r 	c #B5BDB4",
"s 	c #909590",
"t 	c #2A2B2A",
"u 	c #626A62",
"v 	c #929E91",
"w 	c #AEBBAD",
"x 	c #BEC7BE",
"y 	c #AFB4AF",
"z 	c #A9AAA8",
"A 	c #CDCDCD",
"B 	c #E2E3E2",
"C 	c #BFC0BF",
"D 	c #787E77",
"E 	c #858E83",
"F 	c #535753",
"G 	c #5E665E",
"H 	c #B6C1B5",
"I 	c #BCC2BB",
"J 	c #AEAFAE",
"K 	c #E3E3E3",
"L 	c #CACBCA",
"M 	c #818580",
"N 	c #7D867B",
"O 	c #9FAA9D",
"P 	c #687167",
"Q 	c #383D37",
"R 	c #778076",
"S 	c #ADBBAC",
"T 	c #BFC8BE",
"U 	c #A1A8A1",
"V 	c #6F726E",
"W 	c #BCBDBC",
"X 	c #7A7C7A",
"Y 	c #5D635C",
"Z 	c #737D72",
"` 	c #485147",
" .	c #616960",
"..	c #A6B4A5",
"+.	c #9FAC9E",
"@.	c #495148",
"#.	c #919191",
"$.	c #626462",
"%.	c #5A6159",
"&.	c #6F7A6E",
"*.	c #394238",
"=.	c #7F8B7E",
"-.	c #9DAB9C",
";.	c #505A4E",
">.	c #767776",
",.	c #5A5D5A",
"'.	c #5A6059",
").	c #6D796C",
"!.	c #333C32",
"~.	c #6C776A",
"{.	c #95A293",
"].	c #AAB8A9",
"^.	c #A0AE9F",
"/.	c #5F6B5D",
"(.	c #484948",
"_.	c #4F524E",
":.	c #656D64",
"<.	c #556053",
"[.	c #5A6358",
"}.	c #96A495",
"|.	c #A8B6A7",
"1.	c #A2B0A0",
"2.	c #647162",
"3.	c #3B3C3A",
"4.	c #4B4F4A",
"5.	c #697368",
"6.	c #333D32",
"7.	c #515C50",
"8.	c #899787",
"9.	c #A6B5A5",
"0.	c #A4B2A2",
"a.	c #6A7768",
"b.	c #282B27",
"c.	c #404540",
"d.	c #576255",
"e.	c #0B0E0B",
"f.	c #000000",
"g.	c #363E35",
"h.	c #5F6C5D",
"i.	c #93A291",
"j.	c #A0AE9E",
"k.	c #768574",
"l.	c #212520",
"m.	c #323832",
"n.	c #202520",
"o.	c #3A4538",
"p.	c #596657",
"q.	c #798877",
"r.	c #6C7C6A",
"s.	c #323731",
"t.	c #242823",
"u.	c #0C0D0B",
"v.	c #495548",
"w.	c #4B5A49",
"x.	c #333A33",
"y.	c #141714",
"z.	c #030403",
"A.	c #191C18",
"                                                ",
"                                                ",
"                                                ",
"                                                ",
"                    . + @                       ",
"                # $ % & * =                     ",
"        - ;   > , ' ) ! ~ {                     ",
"        ] ^ / ( _ : < [ } | 1 2                 ",
"        3 4 5 6 7 8 , 9 0 a b c d e             ",
"        f g h i j k l m n o p q r s t           ",
"        u v h h w x y z A B C D E b . F         ",
"        G | h h h w H I l J K L M N O P         ",
"        Q R h h h h h S T U V W X Y Z `         ",
"           ...h h h h h w +.@.#.$.%.&.*.        ",
"            =...h h h h h -.;.>.,.'.).!.        ",
"              ~.{.].h h h ^./.(._.:.<.          ",
"                [.}.|.h h 1.2.3.4.5.6.          ",
"                  7.8.9.h 0.a.b.c.d.e.f.        ",
"                    g.h.i.j.k.l.m.n.f.f.f.      ",
"                      o.p.q.r.s.t.u.f.f.f.      ",
"                          v.w.x.y.z.f.          ",
"                            A.f.f.f.            ",
"                                                ",
"                                                "};
