/* XPM */
static char * folder48_xpm[] = {
"48 42 273 2",
"  	c None",
". 	c #575C68",
"+ 	c #5F6573",
"@ 	c #515560",
"# 	c #595F6B",
"$ 	c #A1ADC9",
"% 	c #B0BEDE",
"& 	c #99A5BF",
"* 	c #4F545F",
"= 	c #535965",
"- 	c #929EB9",
"; 	c #A3B1CF",
"> 	c #A4B0CF",
", 	c #A3B0CF",
"' 	c #A4B1CF",
") 	c #8D98B1",
"! 	c #484C56",
"~ 	c #494E59",
"{ 	c #848FA9",
"] 	c #929FBC",
"^ 	c #929EBB",
"/ 	c #929EBC",
"( 	c #808BA4",
"_ 	c #2B2E37",
": 	c #000000",
"< 	c #3D424E",
"[ 	c #828EAA",
"} 	c #838FAA",
"| 	c #838EA9",
"1 	c #828EA9",
"2 	c #838EAA",
"3 	c #828FAA",
"4 	c #464C5B",
"5 	c #838892",
"6 	c #BAC0CE",
"7 	c #9BA0AB",
"8 	c #1C1C1C",
"9 	c #363B47",
"0 	c #7A86A0",
"a 	c #7A85A0",
"b 	c #77839D",
"c 	c #484E5E",
"d 	c #7C808A",
"e 	c #BEC9E3",
"f 	c #B6C2E2",
"g 	c #B5C2E2",
"h 	c #B5C1E1",
"i 	c #B4C0E0",
"j 	c #B2BFDE",
"k 	c #747C91",
"l 	c #333843",
"m 	c #677189",
"n 	c #5F687D",
"o 	c #4B5261",
"p 	c #737781",
"q 	c #C2CDE7",
"r 	c #B4C1E1",
"s 	c #B3C0E0",
"t 	c #B3C0DF",
"u 	c #B2BFDF",
"v 	c #B1BEDE",
"w 	c #767F94",
"x 	c #252831",
"y 	c #464B56",
"z 	c #3D3F43",
"A 	c #6E727C",
"B 	c #C3CEE8",
"C 	c #B1BEDD",
"D 	c #B1BDDD",
"E 	c #B0BDDC",
"F 	c #757E92",
"G 	c #252629",
"H 	c #979DAC",
"I 	c #CCD5EB",
"J 	c #CBD5EB",
"K 	c #C3CEE7",
"L 	c #B0BDDD",
"M 	c #B0BCDC",
"N 	c #AFBCDC",
"O 	c #AFBCDB",
"P 	c #AFBBDB",
"Q 	c #AEBBDA",
"R 	c #595D68",
"S 	c #BCC8E4",
"T 	c #ADBADA",
"U 	c #ADBAD9",
"V 	c #ADB9D9",
"W 	c #737B90",
"X 	c #4F5563",
"Y 	c #AEBBDB",
"Z 	c #ACB9D8",
"` 	c #ABB8D8",
" .	c #ABB8D7",
"..	c #727A8F",
"+.	c #AEBADA",
"@.	c #ABB7D7",
"#.	c #AAB7D6",
"$.	c #AAB6D6",
"%.	c #AAB6D5",
"&.	c #A9B6D5",
"*.	c #70798E",
"=.	c #4E5462",
"-.	c #ACB9D9",
";.	c #ACB8D8",
">.	c #A9B5D4",
",.	c #A8B5D4",
"'.	c #A8B4D3",
").	c #A7B4D3",
"!.	c #A7B4D2",
"~.	c #6F788C",
"{.	c #4E5461",
"].	c #A7B3D2",
"^.	c #A6B3D2",
"/.	c #A6B3D1",
"(.	c #A6B2D1",
"_.	c #A5B2D0",
":.	c #6E778B",
"<.	c #4D5360",
"[.	c #A5B1D0",
"}.	c #A4B1D0",
"|.	c #6D7589",
"1.	c #4C5260",
"2.	c #A3B0CE",
"3.	c #A3AFCE",
"4.	c #A2AFCD",
"5.	c #A2AECD",
"6.	c #A2AECC",
"7.	c #6C7488",
"8.	c #4B515F",
"9.	c #A8B5D3",
"0.	c #A5B2D1",
"a.	c #A1AECC",
"b.	c #A1ADCC",
"c.	c #A1ADCB",
"d.	c #A0ADCB",
"e.	c #A0ACCA",
"f.	c #9FACCA",
"g.	c #6A7286",
"h.	c #4B505E",
"i.	c #A3AFCD",
"j.	c #A0ACCB",
"k.	c #9FABCA",
"l.	c #9FABC9",
"m.	c #9EABC9",
"n.	c #9EABC8",
"o.	c #9EAAC8",
"p.	c #9DAAC8",
"q.	c #697185",
"r.	c #4A505D",
"s.	c #9DA9C7",
"t.	c #9CA9C6",
"u.	c #9CA8C6",
"v.	c #9BA8C6",
"w.	c #677083",
"x.	c #494F5C",
"y.	c #9CA9C7",
"z.	c #9BA8C5",
"A.	c #9BA7C5",
"B.	c #9AA7C4",
"C.	c #9AA6C4",
"D.	c #9AA6C3",
"E.	c #666E82",
"F.	c #484E5B",
"G.	c #9DAAC7",
"H.	c #99A6C3",
"I.	c #99A5C3",
"J.	c #99A5C2",
"K.	c #98A4C2",
"L.	c #98A4C1",
"M.	c #97A3C1",
"N.	c #656D80",
"O.	c #474D5A",
"P.	c #97A3C0",
"Q.	c #96A2C0",
"R.	c #96A2BF",
"S.	c #95A2BF",
"T.	c #646C7F",
"U.	c #464C59",
"V.	c #96A3C0",
"W.	c #95A1BE",
"X.	c #94A0BE",
"Y.	c #94A0BD",
"Z.	c #636B7E",
"`.	c #454B58",
" +	c #939FBC",
".+	c #61697C",
"++	c #454A57",
"@+	c #97A4C1",
"#+	c #95A1BF",
"$+	c #939FBB",
"%+	c #929DBA",
"&+	c #919DBA",
"*+	c #919DB9",
"=+	c #919CB9",
"-+	c #909CB9",
";+	c #60687B",
">+	c #444956",
",+	c #909BB8",
"'+	c #8F9BB8",
")+	c #8F9BB7",
"!+	c #8E9AB7",
"~+	c #5F6779",
"{+	c #434855",
"]+	c #94A1BE",
"^+	c #939FBD",
"/+	c #909CB8",
"(+	c #8F9AB7",
"_+	c #8E9AB6",
":+	c #8D99B6",
"<+	c #8D99B5",
"[+	c #8C98B5",
"}+	c #5D6578",
"|+	c #424754",
"1+	c #8D98B5",
"2+	c #8C98B4",
"3+	c #8B97B4",
"4+	c #8B97B3",
"5+	c #8B96B3",
"6+	c #5C6477",
"7+	c #414653",
"8+	c #8C97B4",
"9+	c #8A96B2",
"0+	c #8A95B2",
"a+	c #8995B1",
"b+	c #8994B0",
"c+	c #5B6275",
"d+	c #8A95B1",
"e+	c #8994B1",
"f+	c #8894B0",
"g+	c #8893AF",
"h+	c #8793AF",
"i+	c #8792AE",
"j+	c #8692AE",
"k+	c #5A6174",
"l+	c #404552",
"m+	c #8691AD",
"n+	c #8591AD",
"o+	c #8591AC",
"p+	c #8590AC",
"q+	c #8490AC",
"r+	c #586072",
"s+	c #3F4451",
"t+	c #8692AD",
"u+	c #8490AB",
"v+	c #848FAB",
"w+	c #575E71",
"x+	c #3E4350",
"y+	c #8B96B2",
"z+	c #8793AE",
"A+	c #828DA9",
"B+	c #818DA8",
"C+	c #818CA8",
"D+	c #808CA7",
"E+	c #565D70",
"F+	c #272B32",
"G+	c #585F71",
"H+	c #575F71",
"I+	c #575E70",
"J+	c #565E70",
"K+	c #565D6F",
"L+	c #565D6E",
"M+	c #555D6E",
"N+	c #555C6E",
"O+	c #545C6E",
"P+	c #545C6D",
"Q+	c #545B6D",
"R+	c #535B6C",
"S+	c #535A6C",
"T+	c #535A6B",
"U+	c #525A6B",
"V+	c #52596B",
"W+	c #52596A",
"X+	c #51596A",
"                                                                                                ",
"                                                                                                ",
"                                                                                                ",
"            . + + + + + + + + + + + @                                                           ",
"          # $ % % % % % % % % % % % & *                                                         ",
"        = - ; > , ' ; ; ' ; ; , > ; ' ) !                                                       ",
"      ~ { ] ^ / / ] ] ^ / ] ] ^ / / ] / ( _ : : : : : : : : : : : : : : : : : : : :             ",
"      < [ } | [ 1 } 2 2 2 } 3 2 3 3 [ } 4 5 6 6 6 6 6 6 6 6 6 6 6 6 6 6 6 6 6 6 6 7 8           ",
"      9 0 a a a a a a a a a a 0 0 a b c d e f f f f f f f f f f g h h h h h h h i j k :         ",
"      l m n n n n n n n n n n n n n o p q r r r r r r s s s s s s t u u u u j j v v w :         ",
"      x y z z z z z z z z z z z z z A B s s s s s s t u u u u j j v v v C D D E E E F :         ",
"      G H I I I I I I I I I I J J J K t t u u u u j v v v C D D L E E M N O O O P Q k :         ",
"      R S r r r s s s s s t t u u u j j v v v C D L E E E M N O O P Q Q Q Q T U U V W :         ",
"      X u u u u u v v v v v C L L L L E E N N O P P Y Q Q Q T U U U V Z Z Z `  . . ...:         ",
"      X v v v C C L L L E E N N N O P Y Q Q Q +.T U U V Z Z Z Z `  . .@.#.#.#.$.%.&.*.:         ",
"      =.L E M N O O O P Y Q Q +.U U U U -.Z Z ;. . . .@.@.#.#.%.&.&.&.>.,.,.,.'.).!.~.:         ",
"      {.O Y Q Q Q +.U U U -.Z Z Z ;. . . .@.#.#.#.%.&.&.&.,.,.,.'.'.).!.].^./.(.(._.:.:         ",
"      <.U U U -.Z Z ;. . . .@.@.#.#.%.&.&.&.>.,.,.,.'.).!.].].^./.(._._.[.}.' > > > |.:         ",
"      1.;. . . .@.#.#.#.%.&.&.&.,.,.,.'.'.).!.].^./.(.(._._.[.}.> > > 2.2.3.3.4.5.6.7.:         ",
"      8.&.&.&.>.>.,.9.'.).).].]././.(.0._.[.[.' ' > > 2.3.3.4.4.5.6.a.b.c.d.d.e.e.f.g.:         ",
"      h.'.'.).!.].^./.(.(._.[.[.[.' > > 2.2.3.i.4.5.5.a.a.c.c.d.j.e.f.k.l.m.n.o.o.p.q.:         ",
"      r./.(.0._.[.[.' ' > , 2.3.3.4.4.5.6.a.b.c.d.d.e.e.f.l.l.m.o.o.o.s.s.s.t.u.u.v.w.:         ",
"      x.' > , 2.3.3.i.4.5.5.a.a.b.c.d.e.e.f.k.l.l.n.o.o.p.s.s.y.t.u.u.z.A.A.B.C.C.D.E.:         ",
"      F.5.6.a.a.c.d.j.e.e.f.k.l.m.o.o.p.G.s.s.y.u.u.z.A.A.A.B.C.D.H.I.I.J.K.K.L.L.M.N.:         ",
"      O.j.e.f.l.l.l.m.o.o.p.s.s.y.u.u.u.z.A.A.B.C.C.D.H.I.I.K.K.L.L.L.M.P.P.Q.R.R.S.T.:         ",
"      U.o.o.p.G.s.s.y.u.u.z.A.A.A.B.C.D.H.I.I.J.K.K.L.L.M.P.P.V.Q.R.R.W.W.W.W.X.Y.Y.Z.:         ",
"      `.u.u.u.z.A.A.B.C.C.D.H.I.I.K.K.L.L.L.M.P.P.Q.R.R.S.W.W.W.W.Y.Y.Y. + + + + +^ .+:         ",
"      ++C.D.I.I.J.J.K.L.L.@+P.P.V.R.R.R.R.#+W.W.Y.Y.Y.Y.Y. + +$+^ ^ ^ ^ %+&+*+=+-+-+;+:         ",
"      >+K.L.@+M.P.P.Q.R.R.R.#+W.W.W.Y.Y.Y.Y. + + +$+^ ^ ^ %+&+&+*+=+-+-+,+'+'+)+)+!+~+:         ",
"      {+R.R.R.S.W.W.]+Y.Y.Y.Y.^+ + +^ ^ ^ ^ ^ &+&+*+-+-+-+/+'+'+)+(+!+!+_+:+:+<+<+[+}+:         ",
"      |+]+Y.Y.Y.^+ + + +^ ^ ^ ^ &+&+&+*+-+-+-+,+'+'+)+(+!+_+:+:+:+<+1+2+2+2+3+4+4+5+6+:         ",
"      7+ +^ ^ ^ ^ &+&+&+*+-+-+-+/+'+'+)+(+!+!+_+:+:+<+<+[+2+2+8+4+4+5+9+9+9+0+a+a+b+c+:         ",
"      7+&+=+-+/+,+'+'+)+!+!+!+_+:+<+<+1+[+2+2+4+4+4+5+9+9+9+d+a+e+b+f+f+g+h+h+i+j+j+k+:         ",
"      l+)+!+!+!+_+_+:+<+1+[+2+2+8+4+4+4+9+9+9+d+a+a+e+b+f+g+h+h+h+i+j+j+m+n+o+p+p+q+r+:         ",
"      s+<+<+1+[+2+2+4+4+4+5+9+9+9+a+a+e+b+f+f+g+h+h+i+j+j+t+m+n+o+p+q+u+v+v+} } 2 2 w+:         ",
"      x+4+y+9+9+d+a+a+b+f+f+f+g+h+z+i+j+j+m+m+n+p+p+u+u+v+v+} } 2 | 1 A+A+B+B+C+D+D+E+:         ",
"      F+G+G+H+H+I+I+I+I+J+J+K+K+K+L+M+M+N+N+O+P+Q+Q+Q+Q+Q+R+R+R+S+T+U+V+V+V+V+W+X+X+9 :         ",
"      : : : : : : : : : : : : : : : : : : : : : : : : : : : : : : : : : : : : : : : :           ",
"                                                                                                ",
"                                                                                                ",
"                                                                                                ",
"                                                                                                "};
