/* XPM */
static char * folder32_xpm[] = {
"32 32 261 2",
"  	c None",
". 	c #696E69",
"+ 	c #747774",
"@ 	c #4B4B4B",
"# 	c #848D83",
"$ 	c #B7C0B6",
"% 	c #ABAEAA",
"& 	c #696969",
"* 	c #2C2B2C",
"= 	c #0E0F0E",
"- 	c #8C8C8C",
"; 	c #414141",
"> 	c #262926",
", 	c #7E887D",
"' 	c #AEBCAD",
") 	c #B7C2B6",
"! 	c #BCC2BC",
"~ 	c #929592",
"{ 	c #3F423F",
"] 	c #828782",
"^ 	c #A4A7A4",
"/ 	c #2F302F",
"( 	c #5E5E5E",
"_ 	c #D6D6D6",
": 	c #EFEFEF",
"< 	c #555755",
"[ 	c #70796F",
"} 	c #95A193",
"| 	c #A5B2A4",
"1 	c #A5B3A4",
"2 	c #727E71",
"3 	c #394038",
"4 	c #6F776E",
"5 	c #C3CCC3",
"6 	c #A5A9A5",
"7 	c #2C2A2C",
"8 	c #413F41",
"9 	c #BEBDBE",
"0 	c #FBFBFB",
"a 	c #DADBDA",
"b 	c #818380",
"c 	c #636A63",
"d 	c #788277",
"e 	c #9DAA9B",
"f 	c #8B988A",
"g 	c #747B73",
"h 	c #434443",
"i 	c #5D655C",
"j 	c #A0AC9F",
"k 	c #BCC8BC",
"l 	c #AFB2AF",
"m 	c #878487",
"n 	c #898889",
"o 	c #CDCECD",
"p 	c #E0E1E0",
"q 	c #A1A3A1",
"r 	c #646863",
"s 	c #646D63",
"t 	c #929E91",
"u 	c #B0BAAF",
"v 	c #ACB1AC",
"w 	c #585958",
"x 	c #131313",
"y 	c #4F554E",
"z 	c #919C90",
"A 	c #ACBAAB",
"B 	c #CCD1CC",
"C 	c #CACBCA",
"D 	c #ABABAB",
"E 	c #FAFAFA",
"F 	c #F2F3F2",
"G 	c #D1D2D1",
"H 	c #6B6F6A",
"I 	c #50564F",
"J 	c #8A9589",
"K 	c #B2BEB1",
"L 	c #BDC3BD",
"M 	c #929392",
"N 	c #252525",
"O 	c #010101",
"P 	c #3A3E39",
"Q 	c #7A8479",
"R 	c #A7B5A6",
"S 	c #ABB9AA",
"T 	c #BEC9BD",
"U 	c #E0E5E0",
"V 	c #ABA9AC",
"W 	c #8A8A8A",
"X 	c #CBCBCB",
"Y 	c #F3F3F3",
"Z 	c #F5F6F5",
"` 	c #B7B8B6",
" .	c #5B5E5A",
"..	c #646B64",
"+.	c #99A598",
"@.	c #BCC5BB",
"#.	c #C1C6C1",
"$.	c #6D6F6D",
"%.	c #111111",
"&.	c #666E65",
"*.	c #A3B0A2",
"=.	c #B3BFB2",
"-.	c #CED4CD",
";.	c #B2B5B2",
">.	c #8F918F",
",.	c #AEAFAE",
"'.	c #EBEBEB",
").	c #F7F7F7",
"!.	c #CDCFCD",
"~.	c #7F827F",
"{.	c #5B625A",
"].	c #848E83",
"^.	c #ACB8AB",
"/.	c #C1C9C0",
"(.	c #717571",
"_.	c #353735",
":.	c #5F675F",
"<.	c #A1AEA0",
"[.	c #C0CAC0",
"}.	c #BDC1BC",
"|.	c #A5A6A4",
"1.	c #9FA09F",
"2.	c #F4F4F4",
"3.	c #E8E9E8",
"4.	c #979A96",
"5.	c #696E68",
"6.	c #798277",
"7.	c #A1AD9F",
"8.	c #B4BEB3",
"9.	c #8C938C",
"0.	c #373B37",
"a.	c #5E655E",
"b.	c #A0AD9F",
"c.	c #AEBBAD",
"d.	c #B7C3B6",
"e.	c #C5CCC5",
"f.	c #B0B2B0",
"g.	c #898A89",
"h.	c #B0B0B0",
"i.	c #F0F0F0",
"j.	c #ABADAB",
"k.	c #616660",
"l.	c #7A8478",
"m.	c #9FAB9D",
"n.	c #909C8E",
"o.	c #444C43",
"p.	c #3F443E",
"q.	c #C4CDC3",
"r.	c #C5CAC5",
"s.	c #7C807C",
"t.	c #797B78",
"u.	c #ACADAC",
"v.	c #545753",
"w.	c #616860",
"x.	c #768075",
"y.	c #6D7A6C",
"z.	c #292F28",
"A.	c #232622",
"B.	c #909C8F",
"C.	c #373D36",
"D.	c #A0A0A0",
"E.	c #878787",
"F.	c #494C49",
"G.	c #757F74",
"H.	c #5E695C",
"I.	c #20261F",
"J.	c #596158",
"K.	c #9EAC9D",
"L.	c #8A9989",
"M.	c #2E342D",
"N.	c #8F8F8F",
"O.	c #767776",
"P.	c #424641",
"Q.	c #616960",
"R.	c #7B877A",
"S.	c #4B564A",
"T.	c #1C221B",
"U.	c #657064",
"V.	c #9EAB9D",
"W.	c #909F8F",
"X.	c #3F483D",
"Y.	c #707070",
"Z.	c #717271",
"`.	c #626961",
" +	c #808D7F",
".+	c #323C31",
"++	c #555F53",
"@+	c #8D9A8B",
"#+	c #A6B4A5",
"$+	c #94A393",
"%+	c #4C574A",
"&+	c #454645",
"*+	c #5A5B5A",
"=+	c #444A43",
"-+	c #6D756C",
";+	c #6A7768",
">+	c #242B22",
",+	c #4B544A",
"'+	c #808C7E",
")+	c #96A495",
"!+	c #515D4F",
"~+	c #3C3C3B",
"{+	c #4E4F4D",
"]+	c #4E544E",
"^+	c #768074",
"/+	c #455143",
"(+	c #384037",
"_+	c #7C8A7B",
":+	c #A1AF9F",
"<+	c #AAB8A9",
"[+	c #9AA898",
"}+	c #546153",
"|+	c #333533",
"1+	c #3C3F3C",
"2+	c #535A53",
"3+	c #6D796C",
"4+	c #212920",
"5+	c #323A31",
"6+	c #687666",
"7+	c #96A594",
"8+	c #AAB8A8",
"9+	c #9EAC9C",
"0+	c #5A6758",
"a+	c #252825",
"b+	c #565D56",
"c+	c #505C4E",
"d+	c #070907",
"e+	c #000000",
"f+	c #242A23",
"g+	c #4B5649",
"h+	c #768574",
"i+	c #9CAB9B",
"j+	c #A2B0A1",
"k+	c #677665",
"l+	c #1B1F1A",
"m+	c #242724",
"n+	c #464E45",
"o+	c #2E352D",
"p+	c #3E4A3C",
"q+	c #657564",
"r+	c #889786",
"s+	c #99A797",
"t+	c #6A7A68",
"u+	c #2D322C",
"v+	c #292D29",
"w+	c #2B302A",
"x+	c #3E493D",
"y+	c #536151",
"z+	c #71806F",
"A+	c #5D6D5B",
"B+	c #3E453E",
"C+	c #252924",
"D+	c #161A16",
"E+	c #020202",
"F+	c #3C453B",
"G+	c #465345",
"H+	c #425140",
"I+	c #394139",
"J+	c #1A1E1A",
"K+	c #070807",
"L+	c #191C18",
"                                                                ",
"                                                                ",
"                                                                ",
"                                                                ",
"                                                                ",
"                          . + @                                 ",
"                          # $ % & *                             ",
"          =         - ; > , ' ) ! ~ {                           ",
"          ] ^ /   ( _ : < [ } | 1 2 3                           ",
"          4 5 6 7 8 9 0 a b c d e f g h                         ",
"          i j k l m n o 0 p q r s t u v w x                     ",
"          y z A ) B C - D E F G H I J K L M N O                 ",
"          P Q R S A T U V W X Y Z `  ...+.@.#.$.%.              ",
"            &.*.S S S =.-.;.>.,.'.).!.~.{.].^./.(._.            ",
"            :.<.S S S S K [.}.|.1.G 2.3.4.5.6.7.8.9.0.          ",
"            a.b.S S S S S c.d.e.f.g.h.i.i.j.k.l.m.n.o.          ",
"            p.z S S S S S S S ' q.r.s.t.G u.v.w.x.y.z.          ",
"            A., S S S S S S S S c.d.B.C.D.E.F.w.G.H.I.          ",
"              J.K.S S S S S S S S S L.M.N.O.P.Q.R.S.T.          ",
"                U.V.S S S S S S S S W.X.Y.Z.P.`. +.+            ",
"                  ++@+#+S S S S S S $+%+&+*+=+-+;+>+            ",
"                    ,+'+#+S S S S S )+!+~+{+]+^+/+              ",
"                      (+_+:+<+S S S [+}+|+1+2+3+4+              ",
"                        5+6+7+8+S S 9+0+A.a+b+c+d+e+e+          ",
"                          f+g+h+i+R j+k+l+m+n+l+e+e+e+e+        ",
"                            o+p+q+r+s+t+u+v+w+d+e+e+e+e+        ",
"                                x+y+z+A+B+C+D+E+e+e+e+          ",
"                                  F+G+H+I+J+K+e+e+              ",
"                                      L+e+e+e+e+                ",
"                                                                ",
"                                                                ",
"                                                                "};
