/* XPM */
static char * forward_xpm[] = {
"19 19 4 1",
" 	c None",
".	c #395273",
"+	c #425273",
"@	c #293952",
"                   ",
"                   ",
"                   ",
"    ...            ",
"    .....          ",
"     ..+...        ",
"      ...+...      ",
"...............    ",
".++++++..........  ",
".................@@",
".++++++........@@  ",
"@@@@@@.......@@    ",
"      ...+.@@      ",
"     ..+.@@        ",
"    ...@@          ",
"    @@@            ",
"                   ",
"                   ",
"                   "};
