/* XPM */
static char * fullscreen_xpm[] = {
"20 20 147 2",
"  	c None",
". 	c #000000",
"+ 	c #FFFFFF",
"@ 	c #FEFEFE",
"# 	c #FDFDFC",
"$ 	c #FCFCFB",
"% 	c #FBFBFA",
"& 	c #FAFAF8",
"* 	c #F9F9F7",
"= 	c #F8F8F6",
"- 	c #F7F7F4",
"; 	c #F6F6F3",
"> 	c #F5F5F2",
", 	c #F4F4F1",
"' 	c #F2F3EF",
") 	c #F1F2EE",
"! 	c #F0F1ED",
"~ 	c #EFF0EB",
"{ 	c #FDFDFD",
"] 	c #FAFAF9",
"^ 	c #F7F7F5",
"/ 	c #F3F3F0",
"( 	c #F2F2EE",
"_ 	c #F1F1ED",
": 	c #F0F0EC",
"< 	c #EFEFEA",
"[ 	c #EEEEE9",
"} 	c #EDEDE8",
"| 	c #F9F9F8",
"1 	c #F8F8F7",
"2 	c #F6F6F4",
"3 	c #F5F5F3",
"4 	c #EFEFEB",
"5 	c #EEEEEA",
"6 	c #ECECE7",
"7 	c #EBEBE6",
"8 	c #EAEAE4",
"9 	c #F8F9F7",
"0 	c #F7F8F6",
"a 	c #F6F7F4",
"b 	c #F5F6F3",
"c 	c #F4F5F2",
"d 	c #F3F4F0",
"e 	c #ECEDE7",
"f 	c #EBECE6",
"g 	c #EAEAE5",
"h 	c #E9E9E3",
"i 	c #E8E8E2",
"j 	c #E7E7E1",
"k 	c #F3F3EF",
"l 	c #EAEBE5",
"m 	c #E9EAE4",
"n 	c #E8E9E3",
"o 	c #E7E8E1",
"p 	c #E6E7E0",
"q 	c #E5E6DF",
"r 	c #E4E5DD",
"s 	c #F2F2EF",
"t 	c #EBEBE5",
"u 	c #E7E7E0",
"v 	c #E6E6DF",
"w 	c #E5E5DE",
"x 	c #E4E4DC",
"y 	c #E3E3DB",
"z 	c #E2E2DA",
"A 	c #E4E4DD",
"B 	c #E1E1D9",
"C 	c #E0E0D8",
"D 	c #DFDFD6",
"E 	c #EDEEE9",
"F 	c #ECEDE8",
"G 	c #E8E9E2",
"H 	c #E5E6DE",
"I 	c #E3E4DC",
"J 	c #E1E2D9",
"K 	c #E0E1D8",
"L 	c #DDDED4",
"M 	c #DCDDD3",
"N 	c #E2E3DB",
"O 	c #E1E2DA",
"P 	c #DEDFD6",
"Q 	c #D9DACF",
"R 	c #E0E0D7",
"S 	c #DEDED5",
"T 	c #DCDCD2",
"U 	c #D6D7CC",
"V 	c #DDDDD4",
"W 	c #DCDCD3",
"X 	c #DBDBD1",
"Y 	c #D9D9CF",
"Z 	c #D8D8CD",
"` 	c #D5D5C9",
" .	c #D4D4C8",
"..	c #D6D7CB",
"+.	c #D5D6CA",
"@.	c #D3D4C7",
"#.	c #D2D3C6",
"$.	c #D1D2C5",
"%.	c #DFE0D7",
"&.	c #DDDED5",
"*.	c #DBDCD2",
"=.	c #DADBD1",
"-.	c #D8D9CE",
";.	c #D7D8CD",
">.	c #D4D5C9",
",.	c #D3D4C8",
"'.	c #D0D1C4",
").	c #CFD0C2",
"!.	c #CECFC1",
"~.	c #DADAD0",
"{.	c #D9D9CE",
"].	c #D7D7CC",
"^.	c #D6D6CB",
"/.	c #D2D3C7",
"(.	c #CFD0C3",
"_.	c #CECFC2",
":.	c #CDCEC0",
"<.	c #CCCDBF",
"[.	c #CBCCBE",
"}.	c #DADBD0",
"|.	c #D7D8CC",
"1.	c #D5D5CA",
"2.	c #CECEC1",
"3.	c #CDCDBF",
"4.	c #CCCCBE",
"5.	c #CBCBBD",
"6.	c #CACABB",
"7.	c #C8C9BA",
"8.	c #CCCDBE",
"9.	c #CBCCBD",
"0.	c #CACBBC",
"a.	c #C9CABA",
"b.	c #C8C9B9",
"c.	c #C7C8B8",
"d.	c #C6C7B7",
"e.	c #C9CABB",
"f.	c #C5C6B6",
"g.	c #C4C5B4",
"h.	c #C3C4B3",
"i.	c #D2D2C6",
"j.	c #D1D1C4",
"k.	c #D0D0C3",
"l.	c #CFCFC2",
"m.	c #CACBBD",
"n.	c #C7C8B9",
"o.	c #C4C5B5",
"p.	c #C2C4B2",
". . . . . . . . . . . . . . . . . . . . ",
". + + + @ # $ % & * = - ; > , ' ) ! ~ . ",
". @ { $ % ] * = ^ . . , / ( _ : < [ } . ",
". % ] | 1 ^ 2 3 . . . . : 4 5 } 6 7 8 . ",
". 9 0 a b c d . . . . . . e f g h i j . ",
". ; > , k ( _ : < . . f l m n o p q r . ",
". / s _ : 4 [ } 6 t 8 h i u v w x y z . ",
". : 4 5 . 6 7 . . . . . . A y . B C D . ",
". E F . . m G . p H r I . J K . . L M . ",
". t . . . . q . I N O K . P . . . . Q . ",
". i . . . . y . B R D S . T . . . . U . ",
". w A . . B C . S V W X . Y Z . . `  .. ",
". N J K . P L . . . . . . ..+.. @.#.$.. ",
". %.P &.M *.=.Q -.;.U +.>.,.#.$.'.).!.. ",
". V T X ~.{.Z ].^.. . /.$.'.(._.:.<.[.. ",
". }.Q -.|.^.1.. . . . . . 2.3.4.5.6.7.. ",
". ;...+.>.@.#.$.. . . . 8.9.0.a.b.c.d.. ",
". >.,./.$.'.(.!.:.. . 0.e.7.c.d.f.g.h.. ",
". i.j.k.l.:.<.[.m.e.7.n.d.f.o.h.p.p.p.. ",
". . . . . . . . . . . . . . . . . . . . "};
