/* XPM */
static char * home_xpm[] = {
"23 19 10 1",
" 	c None",
".	c #293952",
"+	c #395273",
"@	c #425273",
"#	c #39526B",
"$	c #7B8C9C",
"%	c #639C63",
"&	c #FFFFFF",
"*	c #316363",
"=	c #006331",
"               .       ",
"              ++.      ",
"     ++.     ++++.     ",
"     ++.    +++@@+.    ",
"     ++.   +++++@@+.   ",
"  +++++++++++@+++@@+.  ",
"  ++++++++++++++++#++. ",
" ++@++++++++++++++++++.",
" +++++++++++++++++++...",
"++#+++++++++++++++++.  ",
"+++#++++++++++++++++.  ",
"  +++$$$$++++%%%%+++.  ",
"  +++$&&&++++%%%%+++.  ",
"  +++$&&&++++%%%%+++.  ",
"  +++$&&&++++%%%%+++.  ",
"  +++++++++++%%%%+++.  ",
"  +++++++++++%%%%+++.  ",
"  +++++++++++%%%%+++.  ",
"  ...........***=....  "};
