/* XPM */
static char * leftarrow_xpm[] = {
"12 18 6 1",
" 	c None",
".	c #848484",
"+	c #000000",
"@	c #639CFF",
"#	c #5A7BAD",
"$	c #31639C",
"            ",
"       .++. ",
"      .+@#+ ",
"     .+@$$+ ",
"    .+@$$+. ",
"   .+@$$+.  ",
"  .+@$$+.   ",
" .+@$$+.    ",
" +@$$+.     ",
" +#$$+.     ",
" .+$$$+.    ",
"  .+$$$+.   ",
"   .+$$$+.  ",
"    .+$$$+  ",
"     .+$$$+ ",
"      .+$$+ ",
"       .++. ",
"            "};
