/* XPM */
static char * nfolder_xpm[] = {
"22 18 104 2",
"  	c None",
". 	c #5F6269",
"+ 	c #5A5E67",
"@ 	c #32363F",
"# 	c #838892",
"$ 	c #C0CBE6",
"% 	c #BCC8E4",
"& 	c #8F9AB4",
"* 	c #22252B",
"= 	c #7B7F88",
"- 	c #AFBBD5",
"; 	c #A9B7D5",
"> 	c #A9B6D5",
", 	c #97A3BE",
"' 	c #111215",
") 	c #151517",
"! 	c #141416",
"~ 	c #797F8E",
"{ 	c #9EAAC6",
"] 	c #7D879F",
"^ 	c #8590A9",
"/ 	c #8C96AD",
"( 	c #A7ADBC",
"_ 	c #9EA5B2",
": 	c #BBC3D6",
"< 	c #7A7F8C",
"[ 	c #747A89",
"} 	c #8D98B3",
"| 	c #565A64",
"1 	c #A8ABB2",
"2 	c #A7AAB1",
"3 	c #A4A7AF",
"4 	c #9FA2AB",
"5 	c #9DA0A8",
"6 	c #535761",
"7 	c #8793AF",
"8 	c #5B6375",
"9 	c #6F7583",
"0 	c #818BA5",
"a 	c #767A84",
"b 	c #FFFFFF",
"c 	c #FFFEFE",
"d 	c #FBFBFC",
"e 	c #F5F6F6",
"f 	c #EEEEF0",
"g 	c #3E3E3F",
"h 	c #3D3D3D",
"i 	c #1E1F22",
"j 	c #22252C",
"k 	c #17191E",
"l 	c #6B717F",
"m 	c #666E83",
"n 	c #5E6169",
"o 	c #D3D3D3",
"p 	c #D0D0D1",
"q 	c #CCCCCD",
"r 	c #C4C4C6",
"s 	c #C1C1C3",
"t 	c #545455",
"u 	c #E7EAEF",
"v 	c #95969A",
"w 	c #41454D",
"x 	c #646567",
"y 	c #646464",
"z 	c #C6CBD5",
"A 	c #B5C3E3",
"B 	c #757E92",
"C 	c #C6CDDD",
"D 	c #CDD6E8",
"E 	c #B6C3DF",
"F 	c #AFBDDD",
"G 	c #717A8E",
"H 	c #838894",
"I 	c #ACB9D6",
"J 	c #A7B4D3",
"K 	c #6B7488",
"L 	c #A0ACC9",
"M 	c #9CA8C6",
"N 	c #9BA8C7",
"O 	c #9CA8C7",
"P 	c #9BA8C6",
"Q 	c #646C80",
"R 	c #757B8A",
"S 	c #97A2BE",
"T 	c #919DBA",
"U 	c #919DBB",
"V 	c #5D6578",
"W 	c #717786",
"X 	c #8B97B1",
"Y 	c #8591AD",
"Z 	c #565D6F",
"` 	c #6D7381",
" .	c #808BA5",
"..	c #79849F",
"+.	c #79849E",
"@.	c #78849F",
"#.	c #4E5566",
"$.	c #7A849E",
"%.	c #727D97",
"&.	c #495061",
"*.	c #2F3137",
"=.	c #353A45",
"-.	c #323642",
";.	c #20232A",
"                                            ",
"        . . . . + @                         ",
"      # $ $ $ $ % & *                       ",
"    = - ; ; ; ; ; > , ' ) ) ) ) ) ) ) !     ",
"    ~ { ] ^ ^ ^ ^ ^ ^ / ( ( ( ( ( _ : <     ",
"    [ } | 1 1 1 1 2 3 4 5 5 5 5 5 6 7 8     ",
"    9 0 a b b c d e f g h h h h h i j k     ",
"    l m n o p q r s t u u u u u u u u v     ",
"    w x y y y y y y z A A A A A A A A B     ",
"    y C D D D D D D E F F F F F F F F G     ",
"    H I J J J J J J J J J J J J J J J K     ",
"    ~ L M M M M N N O P M M M M M O P Q     ",
"    R S T T T U U U T T T U T U T T U V     ",
"    W X Y Y Y Y Y Y Y Y Y Y Y Y Y Y Y Z     ",
"    `  .....+...+.@.@.@.......@.@...+.#.    ",
"    l $.%.%.%.%.%.%.%.%.%.%.%.%.%.%.%.&.    ",
"    *.=.-.-.-.-.-.-.-.-.-.-.-.-.-.-.-.;.    ",
"                                            "};
