/* XPM */
static char * no_zoom_xpm[] = {
"20 20 179 2",
"  	c None",
". 	c #262625",
"+ 	c #272726",
"@ 	c #252624",
"# 	c #252523",
"$ 	c #3C3C3B",
"% 	c #50504F",
"& 	c #D2D2CE",
"* 	c #EAEAE4",
"= 	c #E6E6DF",
"- 	c #E2E2DA",
"; 	c #DDDED4",
"> 	c #61615D",
", 	c #43433F",
"' 	c #B5B5B2",
") 	c #F2F2EF",
"! 	c #F2F2EE",
"~ 	c #EEEEEA",
"{ 	c #E5E5DE",
"] 	c #E0E0D8",
"^ 	c #DBDBD1",
"/ 	c #C3C4B9",
"( 	c #54544F",
"_ 	c #252524",
": 	c #BBBBB8",
"< 	c #F5F5F2",
"[ 	c #F8F8F5",
"} 	c #EBC7C5",
"| 	c #D67370",
"1 	c #CE5551",
"2 	c #CF635F",
"3 	c #D59993",
"4 	c #DBD4CA",
"5 	c #D6D7CB",
"6 	c #B9BAAE",
"7 	c #52524D",
"8 	c #282827",
"9 	c #F7F7F5",
"0 	c #E9AFAE",
"a 	c #C92F2D",
"b 	c #D25E5B",
"c 	c #DC9794",
"d 	c #D2706D",
"e 	c #C52B28",
"f 	c #CB625D",
"g 	c #D6D7CC",
"h 	c #D0D1C4",
"i 	c #666760",
"j 	c #777777",
"k 	c #000000",
"l 	c #EBEBE6",
"m 	c #F0F0EC",
"n 	c #E9C2C0",
"o 	c #CB3B39",
"p 	c #DC8482",
"q 	c #F3F3EF",
"r 	c #EADFDA",
"s 	c #D16864",
"t 	c #C11A18",
"u 	c #C0120F",
"v 	c #CD8D84",
"w 	c #CACBBD",
"x 	c #43433E",
"y 	c #E9E9E2",
"z 	c #EDEDE8",
"A 	c #DB8E8A",
"B 	c #D25D5B",
"C 	c #EEDEDA",
"D 	c #EDE3DE",
"E 	c #D3706D",
"F 	c #C21F1C",
"G 	c #D3928C",
"H 	c #CE7972",
"I 	c #C4433E",
"J 	c #CFD0C2",
"K 	c #CACABB",
"L 	c #44443F",
"M 	c #9F9F9F",
"N 	c #E9E9E3",
"O 	c #D57A76",
"P 	c #D67A77",
"Q 	c #EBE3DE",
"R 	c #D4706C",
"S 	c #C3201D",
"T 	c #D17E79",
"U 	c #DBD0C6",
"V 	c #D3ADA4",
"W 	c #C12925",
"X 	c #CECEC0",
"Y 	c #C8C9B9",
"Z 	c #43443E",
"` 	c #E1E1D9",
" .	c #E4E4DD",
"..	c #D58883",
"+.	c #CD5956",
"@.	c #D16B67",
"#.	c #C11614",
"$.	c #D07973",
"%.	c #DCD0C8",
"&.	c #DADBD1",
"*.	c #CB7B74",
"=.	c #C3423C",
"-.	c #CBCCBD",
";.	c #C6C7B7",
">.	c #4D4D47",
",.	c #A1A1A1",
"'.	c #DCDDD3",
").	c #DFDFD7",
"!.	c #D9B2AB",
"~.	c #C63633",
"{.	c #BF0A07",
"].	c #D1817B",
"^.	c #DCD3CA",
"/.	c #DADBD0",
"(.	c #D0A299",
"_.	c #C1221F",
":.	c #C7867C",
"<.	c #C8C9BA",
"[.	c #C3C4B4",
"}.	c #44453F",
"|.	c #242422",
"1.	c #D9DACF",
"2.	c #DBDBD0",
"3.	c #D08A83",
"4.	c #C22522",
"5.	c #C8544F",
"6.	c #CE8A82",
"7.	c #C96861",
"8.	c #C12824",
"9.	c #C5615A",
"0.	c #C9CABA",
"a.	c #C5C6B5",
"b.	c #616259",
"c.	c #7F7F7F",
"d.	c #BEBEBE",
"e.	c #181816",
"f.	c #A5A69C",
"g.	c #D5D6CA",
"h.	c #D0ADA2",
"i.	c #C7655E",
"j.	c #C44B45",
"k.	c #C45952",
"l.	c #C78B80",
"m.	c #C9C2B3",
"n.	c #C5C6B6",
"o.	c #ACAD9D",
"p.	c #60605A",
"q.	c #949494",
"r.	c #232321",
"s.	c #9C9D93",
"t.	c #D0D0C3",
"u.	c #CECFC2",
"v.	c #CDCEBF",
"w.	c #B1B2A2",
"x.	c #8E8E8E",
"y.	c #222222",
"z.	c #555553",
"A.	c #444540",
"B.	c #B3B4A7",
"C.	c #C9CABB",
"D.	c #C8C8B8",
"E.	c #C6C6B6",
"F.	c #C3C4B3",
"G.	c #57574F",
"H.	c #4A4B46",
"I.	c #1A1A1A",
"J.	c #A7A7A7",
"K.	c #ABABAB",
"L.	c #9E9E9E",
"M.	c #656663",
"N.	c #333330",
"O.	c #232320",
"P.	c #2C2C29",
"Q.	c #4D4D4A",
"R.	c #939392",
"S.	c #A4A4A4",
"T.	c #2A2A2A",
"U.	c #A9A9A9",
"V.	c #2F2F2F",
"                  . + . @ #             ",
"              $ % & * = - ; > ,         ",
"            $ ' ) ! ~ * { ] ^ / (       ",
"          _ : < [ } | 1 2 3 4 5 6 7     ",
"          8 ! 9 0 a b c d e f g h i j   ",
"        k l m n o p q r s t u v h w x   ",
"        k y z A B C D E F G H I J K L M ",
"        k { N O P Q R S T U V W X Y Z M ",
"        k `  ...+.@.#.$.%.&.*.=.-.;.>.,.",
"        k '.).!.~.{.].^./.(._.:.<.[.}.M ",
"          |.1.2.3.4.5.6.7.8.9.0.a.b.c.d.",
"          e.f.g.g.h.i.j.k.l.m.n.o.p.q.  ",
"          k r.s.t.t.u.v.-.<.a.w.p.x.d.  ",
"        k k y.z.A.B.C.D.E.F.G.H.q.d.    ",
"      k k I.J.K.L.M.N.O.P.Q.R.S.d.      ",
"    k k I.d.d.      d.d.d.d.d.          ",
"  k k T.U.d.                            ",
"  k V.L.d.                              ",
"    L.d.                                ",
"                                        "};
