/* XPM */
static char * paper_xpm[] = {
"48 48 519 2",
"  	c None",
". 	c #A6A6A6",
"+ 	c #494949",
"@ 	c #353535",
"# 	c #DDDDDD",
"$ 	c #7E7E7E",
"% 	c #3F3F3F",
"& 	c #666665",
"* 	c #888686",
"= 	c #323131",
"- 	c #D1D1D1",
"; 	c #D9D9D9",
"> 	c #8D8D8D",
", 	c #4B4B4B",
"' 	c #4A4848",
") 	c #878484",
"! 	c #AAA7A7",
"~ 	c #ABAAA9",
"{ 	c #9A9998",
"] 	c #626260",
"^ 	c #737373",
"/ 	c #D8D8D8",
"( 	c #C0C0C0",
"_ 	c #9B9B9B",
": 	c #7D7D7D",
"< 	c #595959",
"[ 	c #414040",
"} 	c #4F4E4E",
"| 	c #7E7C7C",
"1 	c #A7A3A2",
"2 	c #ADAAA9",
"3 	c #ADAAAA",
"4 	c #AEACAB",
"5 	c #ADACA9",
"6 	c #A5A4A3",
"7 	c #888786",
"8 	c #2E2E2E",
"9 	c #A2A2A2",
"0 	c #272727",
"a 	c #3C3C3C",
"b 	c #4C4C4B",
"c 	c #575757",
"d 	c #6E6D6C",
"e 	c #898886",
"f 	c #9E9C9B",
"g 	c #A4A2A1",
"h 	c #A8A5A5",
"i 	c #AAA6A5",
"j 	c #A9A6A5",
"k 	c #ABA8A7",
"l 	c #ADABA9",
"m 	c #AEACAA",
"n 	c #ABA9A8",
"o 	c #979695",
"p 	c #969696",
"q 	c #636363",
"r 	c #939393",
"s 	c #777777",
"t 	c #737271",
"u 	c #959292",
"v 	c #999797",
"w 	c #9B9998",
"x 	c #A09D9D",
"y 	c #A29E9E",
"z 	c #A3A09E",
"A 	c #A4A1A0",
"B 	c #ABA7A7",
"C 	c #ACAAA9",
"D 	c #ADACAA",
"E 	c #A09F9F",
"F 	c #7B7B7B",
"G 	c #3B3B3B",
"H 	c #6C6C6C",
"I 	c #B5B5B5",
"J 	c #E9E9E9",
"K 	c #A7A7A7",
"L 	c #535251",
"M 	c #918F8E",
"N 	c #9A9897",
"O 	c #9E9B9B",
"P 	c #A09D9C",
"Q 	c #A5A3A2",
"R 	c #A8A5A4",
"S 	c #ACAAAA",
"T 	c #ADABAA",
"U 	c #A7A6A5",
"V 	c #908F8F",
"W 	c #404040",
"X 	c #B3B3B3",
"Y 	c #ADADAD",
"Z 	c #8F8F8F",
"` 	c #EAEAEA",
" .	c #E8E8E8",
"..	c #DEDEDE",
"+.	c #373736",
"@.	c #8C8A89",
"#.	c #9A9796",
"$.	c #9E9B9A",
"%.	c #A29F9E",
"&.	c #A6A3A3",
"*.	c #AEADAB",
"=.	c #ABA9A9",
"-.	c #9F9E9E",
";.	c #787878",
">.	c #4F4F4F",
",.	c #E6E6E6",
"'.	c #555555",
").	c #7E7D7C",
"!.	c #979493",
"~.	c #9B9997",
"{.	c #9F9C9B",
"].	c #A09E9D",
"^.	c #A2A0A0",
"/.	c #A4A2A2",
"(.	c #A7A4A3",
"_.	c #AAA7A6",
":.	c #AEABAA",
"<.	c #AFACAC",
"[.	c #AFADAD",
"}.	c #AEACAC",
"|.	c #A6A4A3",
"1.	c #8D8C8C",
"2.	c #3C3C3B",
"3.	c #B8B8B8",
"4.	c #343434",
"5.	c #B0B0B0",
"6.	c #454544",
"7.	c #908E8D",
"8.	c #9C9998",
"9.	c #A29F9D",
"0.	c #A19F9E",
"a.	c #A3A1A1",
"b.	c #A9A6A4",
"c.	c #ABA8A8",
"d.	c #AFACAB",
"e.	c #AFADAC",
"f.	c #AAA8A8",
"g.	c #9B9A9A",
"h.	c #737372",
"i.	c #373737",
"j.	c #797979",
"k.	c #525251",
"l.	c #8E8C8B",
"m.	c #9C9997",
"n.	c #A09E9C",
"o.	c #A2A09E",
"p.	c #AAA8A7",
"q.	c #AEABAB",
"r.	c #B0ADAD",
"s.	c #A7A5A4",
"t.	c #8F8F8E",
"u.	c #3E3E3E",
"v.	c #A8A8A8",
"w.	c #5E5E5E",
"x.	c #6D6D6D",
"y.	c #646463",
"z.	c #6C6C6B",
"A.	c #787877",
"B.	c #858483",
"C.	c #959391",
"D.	c #9E9C9A",
"E.	c #A3A19F",
"F.	c #A6A3A2",
"G.	c #A9A7A5",
"H.	c #ABA9A7",
"I.	c #B0ACAC",
"J.	c #A09E9E",
"K.	c #757575",
"L.	c #333333",
"M.	c #858585",
"N.	c #676767",
"O.	c #8E8E8E",
"P.	c #8E8E8D",
"Q.	c #8F8E8D",
"R.	c #969493",
"S.	c #9D9B9A",
"T.	c #A6A4A2",
"U.	c #B0ADAC",
"V.	c #B1AEAE",
"W.	c #B3B0AF",
"X.	c #B2AFAF",
"Y.	c #B2AFAD",
"Z.	c #B1AEAD",
"`.	c #B1ADAD",
" +	c #919190",
".+	c #515150",
"++	c #878787",
"@+	c #AAAAAA",
"#+	c #575656",
"$+	c #9B9A99",
"%+	c #A2A09F",
"&+	c #A5A3A1",
"*+	c #A8A6A5",
"=+	c #B1AFAE",
"-+	c #B4B2B1",
";+	c #B6B3B2",
">+	c #B7B4B3",
",+	c #B8B4B4",
"'+	c #B5B3B2",
")+	c #B3B1AF",
"!+	c #B3AFAE",
"~+	c #B1ADAC",
"{+	c #A1A09F",
"]+	c #848483",
"^+	c #2C2C2C",
"/+	c #E2E2E2",
"(+	c #D6D6D6",
"_+	c #434342",
":+	c #ACA9A9",
"<+	c #AEADAA",
"[+	c #B1AFAD",
"}+	c #B3B1B0",
"|+	c #B6B4B3",
"1+	c #B9B6B5",
"2+	c #BAB9B7",
"3+	c #BCB9B8",
"4+	c #BCBAB9",
"5+	c #BBB9B7",
"6+	c #B9B7B6",
"7+	c #B8B5B4",
"8+	c #B5B2B2",
"9+	c #B4B1B0",
"0+	c #B3B0AE",
"a+	c #9E9D9B",
"b+	c #5C5C5C",
"c+	c #B0AEAE",
"d+	c #B8B6B4",
"e+	c #BAB8B8",
"f+	c #BCBABA",
"g+	c #BEBCBB",
"h+	c #C0BEBD",
"i+	c #C1BFBE",
"j+	c #C2BFBE",
"k+	c #C1BEBD",
"l+	c #BFBEBC",
"m+	c #BBB9B8",
"n+	c #BAB7B6",
"o+	c #B5B4B3",
"p+	c #B4B2B2",
"q+	c #B3B2B0",
"r+	c #B1B0AF",
"s+	c #ABAAAA",
"t+	c #919191",
"u+	c #383838",
"v+	c #AFAFAF",
"w+	c #4C4C4C",
"x+	c #A19F9F",
"y+	c #B6B4B4",
"z+	c #BEBBB9",
"A+	c #BFBDBC",
"B+	c #C2BFBF",
"C+	c #C4C1C0",
"D+	c #C5C3C2",
"E+	c #C7C4C4",
"F+	c #C7C5C4",
"G+	c #C6C4C4",
"H+	c #C5C3C3",
"I+	c #C4C2C1",
"J+	c #C3C1C0",
"K+	c #C0BEBC",
"L+	c #B4B3B2",
"M+	c #B2B1B1",
"N+	c #A6A5A5",
"O+	c #767676",
"P+	c #8E8C8C",
"Q+	c #BBBAB9",
"R+	c #C2C1BF",
"S+	c #C9C6C6",
"T+	c #CBC8C8",
"U+	c #CBCAC9",
"V+	c #CDCBCA",
"W+	c #CDCAC9",
"X+	c #CCC9C9",
"Y+	c #CAC8C7",
"Z+	c #C9C7C6",
"`+	c #C6C4C3",
" @	c #C4C3C2",
".@	c #BDB9B9",
"+@	c #B8B5B5",
"@@	c #B2B1B0",
"#@	c #999898",
"$@	c #A9A9A9",
"%@	c #6C6B6B",
"&@	c #CCCAC9",
"*@	c #CECCCB",
"=@	c #D0CECD",
"-@	c #D1CFCF",
";@	c #D2D0D0",
">@	c #D2D1D0",
",@	c #D3D1D0",
"'@	c #D2D0CF",
")@	c #D1CECE",
"!@	c #CFCECD",
"~@	c #CCCBC9",
"{@	c #CAC9C8",
"]@	c #C3C0BF",
"^@	c #ADABAB",
"/@	c #858484",
"(@	c #B2B2B2",
"_@	c #E5E5E5",
":@	c #444343",
"<@	c #BDBCBA",
"[@	c #D0CFCF",
"}@	c #D6D3D3",
"|@	c #D8D6D4",
"1@	c #D9D8D6",
"2@	c #D9D8D8",
"3@	c #DAD9D8",
"4@	c #DAD8D7",
"5@	c #D8D7D6",
"6@	c #D7D5D5",
"7@	c #D6D4D3",
"8@	c #D5D3D2",
"9@	c #D1CFCE",
"0@	c #CFCDCD",
"a@	c #CDCBCB",
"b@	c #C4C2C2",
"c@	c #C2C0BF",
"d@	c #C0BDBC",
"e@	c #BDBBBA",
"f@	c #B7B5B4",
"g@	c #242424",
"h@	c #ECECEC",
"i@	c #474646",
"j@	c #BBB9B9",
"k@	c #D8D8D7",
"l@	c #E0DEDC",
"m@	c #E1DFDF",
"n@	c #E2E1DF",
"o@	c #E2E1E0",
"p@	c #E2E0DF",
"q@	c #E1DFDE",
"r@	c #DFDDDD",
"s@	c #DEDCDB",
"t@	c #DCDBD9",
"u@	c #DAD8D8",
"v@	c #D8D6D5",
"w@	c #D6D5D4",
"x@	c #D4D2D1",
"y@	c #D0CDCD",
"z@	c #CDCCCB",
"A@	c #C0BDBD",
"B@	c #B3B2B1",
"C@	c #939392",
"D@	c #4E4E4E",
"E@	c #ADADAC",
"F@	c #E0E0DF",
"G@	c #E7E6E5",
"H@	c #E9E7E6",
"I@	c #E9E9E7",
"J@	c #E9E8E7",
"K@	c #E8E7E6",
"L@	c #E6E4E3",
"M@	c #E4E2E2",
"N@	c #E3E1E0",
"O@	c #E0DFDE",
"P@	c #DBDAD9",
"Q@	c #D4D2D2",
"R@	c #CBC9C8",
"S@	c #C8C6C5",
"T@	c #C5C4C3",
"U@	c #AEAEAE",
"V@	c #2B2B2B",
"W@	c #9A9A9A",
"X@	c #747373",
"Y@	c #DDDDDC",
"Z@	c #EBEBEA",
"`@	c #EEEDEC",
" #	c #EFEDED",
".#	c #EFEDEC",
"+#	c #EDECEB",
"@#	c #EBEAE9",
"##	c #EAE8E8",
"$#	c #E8E8E6",
"%#	c #E7E5E4",
"&#	c #E4E3E2",
"*#	c #DFDDDC",
"=#	c #DCDAD9",
"-#	c #D9D7D6",
";#	c #CFCDCC",
">#	c #CCCBCA",
",#	c #CAC7C6",
"'#	c #BEBDBC",
")#	c #B6B6B6",
"!#	c #9E9E9E",
"~#	c #363636",
"{#	c #D3D3D2",
"]#	c #F2F1EF",
"^#	c #F3F2F1",
"/#	c #F3F2F0",
"(#	c #F3F1F0",
"_#	c #F2F0EF",
":#	c #F0EFEF",
"<#	c #EFEEED",
"[#	c #EEECEC",
"}#	c #ECEAEA",
"|#	c #E1E0DF",
"1#	c #D9D6D6",
"2#	c #D5D4D3",
"3#	c #D3D1D1",
"4#	c #CECDCC",
"5#	c #C9C8C7",
"6#	c #717171",
"7#	c #474747",
"8#	c #A5A5A5",
"9#	c #5A5A5A",
"0#	c #BDBDBD",
"a#	c #EBEBEB",
"b#	c #F4F4F3",
"c#	c #F5F5F4",
"d#	c #F5F4F4",
"e#	c #F5F4F3",
"f#	c #F4F3F2",
"g#	c #F0EFEE",
"h#	c #EEEDED",
"i#	c #ECECEB",
"j#	c #EAE9E8",
"k#	c #E0E0DE",
"l#	c #DDDCDB",
"m#	c #C2C0C0",
"n#	c #B3B1B1",
"o#	c #1C1C1C",
"p#	c #7C7C7C",
"q#	c #E3E2E2",
"r#	c #F4F3F3",
"s#	c #F7F6F5",
"t#	c #F8F6F6",
"u#	c #F7F6F6",
"v#	c #F6F5F5",
"w#	c #F1EFEE",
"x#	c #EEEEED",
"y#	c #ECEBEA",
"z#	c #E5E3E3",
"A#	c #DEDDDD",
"B#	c #CBCACA",
"C#	c #B6B6B5",
"D#	c #282828",
"E#	c #131313",
"F#	c #020202",
"G#	c #2A2A2A",
"H#	c #434343",
"I#	c #D2D1D1",
"J#	c #F2F1F1",
"K#	c #F8F7F6",
"L#	c #FAF8F7",
"M#	c #F9F8F7",
"N#	c #F9F7F7",
"O#	c #F9F7F6",
"P#	c #F6F6F5",
"Q#	c #F6F5F4",
"R#	c #F4F3F0",
"S#	c #EBEAEA",
"T#	c #E5E4E3",
"U#	c #CECDCD",
"V#	c #666666",
"W#	c #212121",
"X#	c #0E0E0E",
"Y#	c #040404",
"Z#	c #000000",
"`#	c #EEEEEE",
" $	c #F7F7F6",
".$	c #FBF9F8",
"+$	c #FAFAF8",
"@$	c #F4F4F4",
"#$	c #EFEFEE",
"$$	c #E7E6E6",
"%$	c #C8C7C7",
"&$	c #999997",
"*$	c #4D4D4D",
"=$	c #151515",
"-$	c #090909",
";$	c #252525",
">$	c #949494",
",$	c #DBDBDB",
"'$	c #E3E3E3",
")$	c #F6F6F6",
"!$	c #FBFAFA",
"~$	c #FBFAF9",
"{$	c #FAF8F6",
"]$	c #F7F5F5",
"^$	c #F1EFEF",
"/$	c #D7D7D5",
"($	c #BAB9B9",
"_$	c #707070",
":$	c #313030",
"<$	c #060606",
"[$	c #050505",
"}$	c #545454",
"|$	c #B1B1B1",
"1$	c #F5F5F5",
"2$	c #FAF9F9",
"3$	c #FAF9F8",
"4$	c #F9F6F6",
"5$	c #F0EEED",
"6$	c #E3E1E1",
"7$	c #7A7878",
"8$	c #0A0A0A",
"9$	c #464646",
"0$	c #484848",
"a$	c #F7F7F7",
"b$	c #E6E5E4",
"c$	c #B3B2B2",
"d$	c #717070",
"e$	c #6B6B6B",
"f$	c #A4A4A4",
"g$	c #9D9D9D",
"h$	c #A5A4A4",
"i$	c #656565",
"j$	c #262626",
"k$	c #070707",
"l$	c #010101",
"m$	c #161616",
"n$	c #A3A3A3",
"o$	c #E1E1E1",
"p$	c #444444",
"q$	c #424242",
"r$	c #828282",
"s$	c #9C9C9C",
"t$	c #C4C4C4",
"                                                                                                ",
"                                                                                                ",
"                                                                                                ",
"                                                                                                ",
"                                                                                                ",
"                                                                                                ",
"                                                                                                ",
"                                                    . + @                                       ",
"                                              # $ % & * = -                                     ",
"                                        ; > , ' ) ! ~ { ] ^                                     ",
"                            / ( _ : < [ } | 1 2 3 4 5 6 7 8                                     ",
"                      9 0 a b c d e f g h i j k l 4 m n o , p                                   ",
"                    q r s t u v w x y z A 6 h B C D m l E F G                                   ",
"                  H I J K L M N w O P z A Q R k S D m T U V W X                                 ",
"                Y Z `  ...+.@.#.w $.P %.g &.j n 3 4 *.4 =.-.;.%                                 ",
"                >.,. . .J '.).!.~.{.].^./.(._.C :.<.[.}.T |.1.2.3.                              ",
"                4./ J `  .5.6.7.8.9.0.a.&.b.c.T d.e.[.<.4 f.g.h.%                               ",
"                i.i.j.> s W k.l.m.n.o.Q R p.2 q.r.r.r.r.}.3 s.t.u.v.                            ",
"                w.s x.y.z.A.B.C.D.E.F.G.H.3 d.I.r.r.r.r.I.4 =.J.K.L.                            ",
"                M.N.O.O.P.Q.R.S.o.T.p.T U.V.W.W.X.Y.Z.Z.`.U.q.h  +.+++                          ",
"                @+#+$+].J.-.%+&+*+2 =+-+;+>+,+>+'+-+)+W.!+Y.~+2 {+]+^+/+                        ",
"                (+_+z p.:+T <+[+}+|+1+2+3+4+4+5+6+7+>+8+-+9+0+Z.=.a+q b+                        ",
"                  @ g c+-+;+d+e+f+g+h+i+i+j+k+l+g+4+m+n+7+o+p+q+r+s+t+u+v+                      ",
"                  w+x+y+m+z+A+B+C+D+E+F+F+G+H+I+J+j+K+g+4+n+7+|+L+M+N+j.8                       ",
"                  O+P+Q+R+D+E+S+T+U+V+V+W+X+Y+Z+F+`+ @J+i+g+.@n++@|+@@#@'.N.                    ",
"                  $@%@A+Z+&@*@=@-@;@>@,@'@)@!@*@~@{@S+F+D+]@k+g+4+n+7+^@/@8 (@                  ",
"                  _@:@<@[@}@|@1@2@3@4@5@6@7@8@,@9@0@a@U+Z+F+b@c@d@e@4+f@E H g@h@                ",
"                    i@j@k@l@m@n@o@p@q@r@s@t@u@v@w@x@'@y@z@&@Z+G+I+i+A@e@B@C@, D@                ",
"                    x.E@F@G@H@I@J@K@G@L@M@N@O@s@P@5@w@Q@'@y@a@R@S@T@I+i+e@U@M.V@W@              ",
"                    Y X@Y@Z@`@ #.#`@+#@###$#%#&#p@*#=#-#w@Q@'@;#>#,#G+I+'#)#!#>.~#              ",
"                      , {#+#]#^#/#(#_#:#<#[#}###G@&#|#*#=#1#2#3#4#5#J+Q+E@6#7#8#                ",
"                      9#0#a#b#c#c#d#e#f#^#_#g#h#i#j#G@M@k#l#k@{#U+m#n#6#o#;.                    ",
"                      $@p#q#r#s#t#u#v#v#d#e#f#(#w#x#y#J@z#A#2#B#C#%@D#E#F#G#                    ",
"                        H#I#J#K#L#M#N#O#u#P#P#Q#R#g#S#T#3@U#o+V#W#X#Y#Z#Z#Z#w.                  ",
"                        X@$@`# $.$+$.$.$L#N#u#@$#$$$2@%$&$*$=$-$Z#Z#Z#Z#;$>$                    ",
"                        ,$w+'$)$!$~$.$.${$]$^$z#/$($_$:$<$[$Z#Z#Z#F#}$|$                        ",
"                          q X 1$2$3$4$e#5$6$( 7$~#8$-$Z#Z#Z#F#9$p                               ",
"                          ,$0$`#a$r#b$c$d$4.8$[$Z#Z#Z#W#e$f$                                    ",
"                            e$g$h$i$j$k$[$l$m$7#s n$ .                                          ",
"                            o$p$q$i$r$s$t$ .                                                    ",
"                                                                                                ",
"                                                                                                ",
"                                                                                                ",
"                                                                                                ",
"                                                                                                ",
"                                                                                                ",
"                                                                                                ",
"                                                                                                "};
