/* XPM */
static char * prefs_xpm[] = {
"20 18 160 2",
"  	c None",
". 	c #6B615E",
"+ 	c #3C302E",
"@ 	c #B8BEB4",
"# 	c #60695B",
"$ 	c #4F4544",
"% 	c #C9CEC6",
"& 	c #969E90",
"* 	c #757C71",
"= 	c #31352E",
"- 	c #1A1C19",
"; 	c #282828",
"> 	c #303030",
", 	c #333333",
"' 	c #101010",
") 	c #090909",
"! 	c #080808",
"~ 	c #0B0B0B",
"{ 	c #525952",
"] 	c #2B2F2B",
"^ 	c #9DA59F",
"/ 	c #D8DBD7",
"( 	c #A8B1A3",
"_ 	c #7E8777",
": 	c #777E73",
"< 	c #667060",
"[ 	c #373C34",
"} 	c #3D423A",
"| 	c #282825",
"1 	c #505750",
"2 	c #444A44",
"3 	c #808580",
"4 	c #C4CAC1",
"5 	c #85917E",
"6 	c #7D8876",
"7 	c #788371",
"8 	c #7F8B77",
"9 	c #6C7666",
"0 	c #3D443A",
"a 	c #404134",
"b 	c #A57C7D",
"c 	c #CAA1A3",
"d 	c #916767",
"e 	c #5C423C",
"f 	c #353530",
"g 	c #6B756B",
"h 	c #666F66",
"i 	c #687268",
"j 	c #444741",
"k 	c #726C5F",
"l 	c #929C8B",
"m 	c #808C78",
"n 	c #656F60",
"o 	c #37382E",
"p 	c #8B5C5D",
"q 	c #AF787A",
"r 	c #714041",
"s 	c #523731",
"t 	c #504F59",
"u 	c #3D3F42",
"v 	c #687168",
"w 	c #83897F",
"x 	c #8C887B",
"y 	c #645C4D",
"z 	c #9BA595",
"A 	c #818D79",
"B 	c #7F8A77",
"C 	c #5C6354",
"D 	c #5D4744",
"E 	c #9A6868",
"F 	c #6B3737",
"G 	c #4D342D",
"H 	c #5C5A68",
"I 	c #54545C",
"J 	c #A3A194",
"K 	c #726D63",
"L 	c #51504B",
"M 	c #606259",
"N 	c #98A193",
"O 	c #4D5347",
"P 	c #66504A",
"Q 	c #6C3F3E",
"R 	c #5A453E",
"S 	c #898990",
"T 	c #99968F",
"U 	c #827F78",
"V 	c #7B7D73",
"W 	c #696D5D",
"X 	c #424534",
"Y 	c #7D8975",
"Z 	c #818C79",
"` 	c #828D7A",
" .	c #7E8A76",
"..	c #50574B",
"+.	c #71665E",
"@.	c #85867B",
"#.	c #838678",
"$.	c #767969",
"%.	c #515541",
"&.	c #505440",
"*.	c #3A3E2F",
"=.	c #7B8774",
"-.	c #77826F",
";.	c #86917F",
">.	c #86917E",
",.	c #646C5D",
"'.	c #555847",
").	c #4E523E",
"!.	c #2C2F24",
"~.	c #778270",
"{.	c #76816F",
"].	c #828E7A",
"^.	c #8D9887",
"/.	c #5D6455",
"(.	c #4D513D",
"_.	c #414434",
":.	c #2F3226",
"<.	c #12130E",
"[.	c #7A8572",
"}.	c #788370",
"|.	c #7C8874",
"1.	c #8A9683",
"2.	c #85907E",
"3.	c #565E4E",
"4.	c #292B20",
"5.	c #151611",
"6.	c #040503",
"7.	c #000100",
"8.	c #727D6B",
"9.	c #75816E",
"0.	c #798571",
"a.	c #798471",
"b.	c #788471",
"c.	c #74806D",
"d.	c #4C5243",
"e.	c #4A4D3B",
"f.	c #343729",
"g.	c #171812",
"h.	c #030302",
"i.	c #000000",
"j.	c #535C4E",
"k.	c #525B4D",
"l.	c #596253",
"m.	c #60695A",
"n.	c #677161",
"o.	c #747F6D",
"p.	c #727E6C",
"q.	c #414536",
"r.	c #3E4232",
"s.	c #22241B",
"t.	c #0B0B08",
"u.	c #010101",
"v.	c #535A4E",
"w.	c #555D50",
"x.	c #586052",
"y.	c #5D6657",
"z.	c #5F685A",
"A.	c #24251D",
"B.	c #0E0F0B",
"C.	c #040403",
"                                        ",
"                          .             ",
"                          +             ",
"        @ #               $             ",
"      % & * = - ; > , ' ) ! ! ~ { ]   ^ ",
"    / ( _ : < [ }           | 1 { 2   3 ",
"    4 5 6 7 8 9 0 a b c d e f g h i j k ",
"    l m m m m 8 n o p q r s t u v w x y ",
"  z A m m m m m B C D E F G H I J K L M ",
"N m m m m m m m m m O P Q R S T U V W X ",
"  8 Y m m m m m Z `  ...+.@.#.$.%.&.&.*.",
"  =.-.m m m m m ;.>.m ,.'.%.&.&.&.&.).!.",
"  ~.{.8 m m m ].^.m m /.(.&.&.&.)._.:.<.",
"  [.}.|.m m m 1.2. .m 3.&.&.&._.4.5.6.7.",
"    8.9.0.a.b.2.8 c.m d.&.e.f.g.h.i.    ",
"    j.k.l.m.n.o.|.p.|.q.r.s.t.u.        ",
"            v.w.x.y.z.A.B.C.i.          ",
"                                        "};
