/* XPM */
static char * question_xpm[] = {
"48 48 50 1",
" 	c None",
".	c #1E1E1E",
"+	c #696969",
"@	c #A5A5A5",
"#	c #D1D1D1",
"$	c #EEEEEE",
"%	c #FDFDFD",
"&	c #464646",
"*	c #B6B6B6",
"=	c #FFFFFF",
"-	c #A9A9A9",
";	c #E4E4E4",
">	c #9C9C9C",
",	c #1D1D1D",
"'	c #505050",
")	c #BFBFBF",
"!	c #333333",
"~	c #000000",
"{	c #040404",
"]	c #585858",
"^	c #727272",
"/	c #CBCBCB",
"(	c #B2B2B2",
"_	c #EBEBEB",
":	c #0D0D0D",
"<	c #FEFEFE",
"[	c #F7F7F7",
"}	c #878787",
"|	c #CDCDCD",
"1	c #BDBDBD",
"2	c #686868",
"3	c #D7D7D7",
"4	c #242424",
"5	c #EFEFEF",
"6	c #606060",
"7	c #767676",
"8	c #2D2D2D",
"9	c #FCFCFC",
"0	c #D9D9D9",
"a	c #5B5B5B",
"b	c #E7E7E7",
"c	c #1C1C1C",
"d	c #C6C6C6",
"e	c #8D8D8D",
"f	c #C8C8C8",
"g	c #555555",
"h	c #E2E2E2",
"i	c #AAAAAA",
"j	c #383838",
"k	c #717171",
"                                                ",
"                                                ",
"                                                ",
"                                                ",
"                                                ",
"                                                ",
"                                                ",
"                                                ",
"                                                ",
"                                                ",
"                                                ",
"                                                ",
"                 .+@#$%%$#@+.                   ",
"               &*============*&                 ",
"              -================-                ",
"             ;=======>,,'=======;               ",
"            )=======!~,,{,=======)              ",
"           ]========~^==/~'=======]             ",
"           (========/====,,=======(             ",
"           _=============:,=======_             ",
"          ~============>:~>========~            ",
"           _=========={~{^========_             ",
"           (==========~'==========(             ",
"           ]========<[}|==========]             ",
"            )=======[123=========)              ",
"            4=======56~7========;               ",
"             8======90ab=======-                ",
"              c==============*&                 ",
"               cd===========*                   ",
"                 e=========f                    ",
"                  ce========g                   ",
"                    ceh======c                  ",
"                       gi====h                  ",
"                         ~jki=h                 ",
"                             ~cgj               ",
"                                                ",
"                                                ",
"                                                ",
"                                                ",
"                                                ",
"                                                ",
"                                                ",
"                                                ",
"                                                ",
"                                                ",
"                                                ",
"                                                ",
"                                                "};
