/* XPM */
static char * resize_xpm[] = {
"20 20 3 1",
" 	c None",
".	c #000000000000",
"X	c #79E77DF779E7",
"                    ",
"                    ",
"  .....     .....   ",
"  .XXXXX     XXX.X  ",
"  .X            .X  ",
"  .X            .X  ",
"  .X            .X  ",
"   X             X  ",
"                    ",
"                    ",
"                    ",
"                    ",
"  .             .   ",
"  .X            .X  ",
"  .X            .X  ",
"  .X            .X  ",
"  .....     .....X  ",
"   XXXXX     XXXXX  ",
"                    ",
"                    "};
