/* XPM */
static char * rightarrow_xpm[] = {
"12 18 4 1",
" 	c None",
".	c #848484",
"+	c #000000",
"@	c #31639C",
"            ",
" .++.       ",
" +@@+.      ",
" +@@@+.     ",
" .+@@@+.    ",
"  .+@@@+.   ",
"   .+@@@+.  ",
"    .+@@@+. ",
"     .+@@@+ ",
"     .+@@@+ ",
"    .+@@@+. ",
"   .+@@@+.  ",
"  .+@@@+.   ",
"  +@@@+.    ",
" +@@@+.     ",
" +@@+.      ",
" .++.       ",
"            "};
