/* XPM */
static char * rotate_xpm[] = {
"18 18 23 1",
" 	c None",
".	c #000000",
"+	c #060606",
"@	c #191919",
"#	c #8B8B8B",
"$	c #2B2B2B",
"%	c #565656",
"&	c #646464",
"*	c #9E9E9E",
"=	c #ACACAC",
"-	c #050505",
";	c #181818",
">	c #4E4E4E",
",	c #777777",
"'	c #1D1D1D",
")	c #8F8F8F",
"!	c #313131",
"~	c #9C9C9C",
"{	c #0E0E0E",
"]	c #484848",
"^	c #353535",
"/	c #949494",
"(	c #A7A7A7",
"         ..       ",
"         ..       ",
"         ...      ",
"       ......     ",
"      .......+    ",
"    .........@#   ",
"   ...$%%$..$&*=  ",
"   .-;&==>-;&==   ",
"  ..;,*= @;,*=    ",
"  ..')=   !~=     ",
"  ..')=    =      ",
"  ..')=           ",
"   .{]%     .     ",
"   ....    ..+    ",
"   ..........@#   ",
"    @>$...{]%&*=  ",
"     =%+@'^/===   ",
"        #)/(=     "};
