/* XPM */
static char * search_xpm[] = {
"17 17 41 1",
" 	c None",
".	c #395273",
"+	c #314263",
"@	c #293952",
"#	c #313952",
"$	c #31425A",
"%	c #394A6B",
"&	c #425273",
"*	c #424A5A",
"=	c #737373",
"-	c #8C8C8C",
";	c #9C9C9C",
">	c #848484",
",	c #525A73",
"'	c #A5A5A5",
")	c #BDBDBD",
"!	c #CECECE",
"~	c #D6D6D6",
"{	c #5A6B84",
"]	c #7B7B7B",
"^	c #C6C6C6",
"/	c #E7E7E7",
"(	c #F7F7F7",
"_	c #FFFFFF",
":	c #39526B",
"<	c #314252",
"[	c #949494",
"}	c #4A637B",
"|	c #EFEFEF",
"1	c #526384",
"2	c #7B8C9C",
"3	c #394A63",
"4	c #6B738C",
"5	c #4A5A7B",
"6	c #425A73",
"7	c #52637B",
"8	c #29314A",
"9	c #29394A",
"0	c #213142",
"a	c #4A5A73",
"b	c #293142",
"    .....        ",
"  ..+@#$%&.      ",
" ..*=-;;>,&&     ",
" ..>')!~!){&     ",
"..]'^/(_(/):<    ",
"..[)/_____/&#    ",
"..;!(_____(}$    ",
"..'~______|1$    ",
"..;!(_____!}@    ",
" :{~/____|2%     ",
" 3:4)/(|!25$     ",
"  +%67{{73@<     ",
"    88990   7{   ",
"            &5a  ",
"             3:: ",
"              $#@",
"               b "};
