/* XPM */
static char * small_refresh_xpm[] = {
"18 15 34 1",
" 	c None",
".	c #395284",
"+	c #395183",
"@	c #334972",
"#	c #293952",
"$	c #2E4163",
"%	c #334870",
"&	c #32476D",
"*	c #32476F",
"=	c #344B75",
"-	c #31466C",
";	c #2C3D5A",
">	c #344B76",
",	c #2D3F5D",
"'	c #2E4061",
")	c #2B3C57",
"!	c #374F7F",
"~	c #2A3A55",
"{	c #344A75",
"]	c #2B3C58",
"^	c #364D79",
"/	c #354C78",
"(	c #2C3D5B",
"_	c #364D7B",
":	c #2F4263",
"<	c #344A74",
"[	c #354C77",
"}	c #2D405F",
"|	c #2D3F5E",
"1	c #2C3E5C",
"2	c #374F7E",
"3	c #2F4264",
"4	c #2A3B56",
"5	c #2A3A54",
"  ........+@#     ",
"   ......+@#  $   ",
"   ......%#  ..&  ",
"  ......*    ...* ",
" ...=@.-      ...;",
" ..>, '       ...)",
"...!          ...)",
"..>~          ...)",
"..{#          ...]",
"..^'       . .../ ",
"...^      .....>( ",
" .._:    .....<,  ",
"  .[}  ......<|   ",
"   1  .......23   ",
"     #4]]]]]]]5#  "};
