/* XPM */
static char * small_up_xpm[] = {
"12 16 28 1",
" 	c None",
".	c #314662",
"+	c #2D3F5A",
"@	c #395273",
"#	c #304561",
"$	c #364D6C",
"%	c #2E415C",
"&	c #2F435F",
"*	c #385172",
"=	c #314562",
"-	c #3A5273",
";	c #3C5273",
">	c #2E3F5A",
",	c #354A68",
"'	c #2B3C57",
")	c #3E5273",
"!	c #2C3D57",
"~	c #364C6B",
"{	c #3D5273",
"]	c #334461",
"^	c #2B3C56",
"/	c #385070",
"(	c #2A3B55",
"_	c #344A69",
":	c #293952",
"<	c #33435F",
"[	c #2A3B54",
"}	c #2B3B54",
"            ",
"     .+     ",
"     @#     ",
"    @@$%    ",
"    @@@&    ",
"   @@@@*%   ",
"   @@@@@=   ",
"  -;@@@@;>  ",
" @-;@@@@;,' ",
" -)@@@@@@)! ",
"@@~&;{{]^~/(",
"$_: ;))< :_[",
"::  ;))<  ::",
"    ;))<    ",
"    ;))<    ",
"    !!!}    "};
