/* XPM */
static char * small_home_xpm[] = {
"18 16 49 1",
" 	c None",
".	c #2B3C57",
"+	c #395273",
"@	c #344A68",
"#	c #2C3E58",
"$	c #314562",
"%	c #3A5273",
"&	c #3D5273",
"*	c #344967",
"=	c #3F5273",
"-	c #405273",
";	c #334866",
">	c #374F6F",
",	c #385071",
"'	c #3F5172",
")	c #324764",
"!	c #39526E",
"~	c #395272",
"{	c #385070",
"]	c #354B6A",
"^	c #2C3D57",
"/	c #334968",
"(	c #293952",
"_	c #39526F",
":	c #3D5675",
"<	c #6A7D91",
"[	c #3B5474",
"}	c #537F69",
"|	c #588967",
"1	c #42636F",
"2	c #3F5777",
"3	c #9FABB7",
"4	c #F1F3F5",
"5	c #415979",
"6	c #5C8F66",
"7	c #639C63",
"8	c #46696E",
"9	c #A3AFBA",
"0	c #FFFFFF",
"a	c #425A79",
"b	c #3D5575",
"c	c #7C8DA0",
"d	c #B6BFCB",
"e	c #3E5777",
"f	c #376461",
"g	c #396C63",
"h	c #256C4F",
"i	c #234B4E",
"j	c #2B3C55",
"            .     ",
"           +@#    ",
"    +$    +%&*    ",
"    +$   ++%=-;   ",
"  +++>,+++=+%-')  ",
"  %+++++++++++!~$ ",
" +&%+++++++++++{]^",
"+~~++++++++++++/((",
"+~_~+++++++++++/  ",
" +~:<<<[++}||1+/  ",
"  +23445++6778+/  ",
"  +2900a++6778+/  ",
"  +bcdde++6778+/  ",
"  ++++++++6778+/  ",
"  ++++++++6778+/  ",
"  ^^^^^^^^fghi^j  "};
