/* XPM */
static char * small_archive_xpm[] = {
"18 18 128 2",
"  	c None",
". 	c #60665A",
"+ 	c #4C5245",
"@ 	c #454942",
"# 	c #B2B8AF",
"$ 	c #86917B",
"% 	c #171915",
"& 	c #000000",
"* 	c #1E201C",
"= 	c #61675B",
"- 	c #393E35",
"; 	c #020302",
"> 	c #7B7D7A",
", 	c #3C3E3B",
"' 	c #767A71",
") 	c #898F84",
"! 	c #747771",
"~ 	c #5C5F5B",
"{ 	c #252823",
"] 	c #0D0F0C",
"^ 	c #3D4037",
"/ 	c #35352E",
"( 	c #0E0E0C",
"_ 	c #7D827A",
": 	c #9DA498",
"< 	c #6C7563",
"[ 	c #899380",
"} 	c #50574A",
"| 	c #141510",
"1 	c #424138",
"2 	c #151311",
"3 	c #515550",
"4 	c #212421",
"5 	c #232521",
"6 	c #686F62",
"7 	c #696E5C",
"8 	c #0E0F0C",
"9 	c #444139",
"0 	c #141311",
"a 	c #3F413E",
"b 	c #8C8F8C",
"c 	c #393B39",
"d 	c #1C1E1C",
"e 	c #5F6351",
"f 	c #1B1D17",
"g 	c #3F3C35",
"h 	c #242321",
"i 	c #3D423C",
"j 	c #B0B7B0",
"k 	c #969E96",
"l 	c #5B625B",
"m 	c #2C2F2C",
"n 	c #363A34",
"o 	c #393A30",
"p 	c #121310",
"q 	c #0A0A09",
"r 	c #686967",
"s 	c #BFC4C1",
"t 	c #767D74",
"u 	c #6C726B",
"v 	c #646A63",
"w 	c #4A504A",
"x 	c #555B56",
"y 	c #B1B7B3",
"z 	c #36382F",
"A 	c #3B3F35",
"B 	c #2D3229",
"C 	c #4D534C",
"D 	c #4F524C",
"E 	c #C5C6C5",
"F 	c #C9CAC9",
"G 	c #BBBFBD",
"H 	c #BDC4C1",
"I 	c #A3ACA6",
"J 	c #ADB4B0",
"K 	c #C2C8C6",
"L 	c #707170",
"M 	c #30322A",
"N 	c #2D3028",
"O 	c #0C0D0B",
"P 	c #778074",
"Q 	c #7C847C",
"R 	c #636963",
"S 	c #7E817D",
"T 	c #A9ABA8",
"U 	c #BCBDBB",
"V 	c #CACBCA",
"W 	c #C5C7C5",
"X 	c #6F716F",
"Y 	c #595F59",
"Z 	c #3C3E36",
"` 	c #2D2D26",
" .	c #10110E",
"..	c #7C857E",
"+.	c #88928D",
"@.	c #7E8780",
"#.	c #6F7771",
"$.	c #636A65",
"%.	c #595E5A",
"&.	c #787B78",
"*.	c #5C5E5B",
"=.	c #60665E",
"-.	c #4D5347",
";.	c #2E2D26",
">.	c #0F0F0C",
",.	c #2F312F",
"'.	c #696F6A",
").	c #8E9993",
"!.	c #808A85",
"~.	c #727A76",
"{.	c #69706B",
"].	c #757B76",
"^.	c #555B50",
"/.	c #3F4136",
"(.	c #1B1D18",
"_.	c #1E1F1E",
":.	c #5F6662",
"<.	c #848E8A",
"[.	c #939F9A",
"}.	c #727A77",
"|.	c #3F4338",
"1.	c #262821",
"2.	c #5A5F5A",
"3.	c #767D76",
"4.	c #3C4237",
"5.	c #0A0B09",
"6.	c #2B2D2A",
"7.	c #10120F",
"                                    ",
"                . +                 ",
"              @ # $ % &             ",
"          & & * = - ;               ",
"                > ,                 ",
"          ' ) ! ~ { ]               ",
"        ^ / ( _ : < [ } |           ",
"        1 2     3 4 5 6 7 8         ",
"        9 0   a b c d   e f         ",
"        g h i j k l m n o p         ",
"      q r s t u v w x y z A B       ",
"    C D E F G H I J K L z M N O     ",
"    P Q R S T U V W X Y Z `  .      ",
"    ..+.@.#.$.%.&.*.=.-.;.>.        ",
"      ,.'.).!.~.{.].^./.(.          ",
"          _.:.<.[.}.|.1.            ",
"                2.3.4.5.            ",
"                  6.7.              "};
