/* XPM */
static char * stop_xpm[] = {
"18 18 6 1",
" 	c None",
".	c #C65252",
"+	c #B54242",
"@	c #AD3939",
"#	c #CE9C9C",
"$	c #FFFFFF",
"     ........     ",
"    ..........    ",
"   ............   ",
"  .............+  ",
" ...............@ ",
".....#$....$#....@",
".....$$$..$$$....@",
"......$$$$$$.....@",
".......$$$$......@",
".......$$$$......@",
"......$$$$$$.....@",
".....$$$..$$$....@",
".....#$....$#...+@",
" ..............+@ ",
"  +...........+@  ",
"   @+........+@   ",
"    @++++++++@    ",
"     @@@@@@@@     "};
