/* XPM */
static char * up_xpm[] = {
"13 19 4 1",
" 	c None",
".	c #293952",
"+	c #395273",
"@	c #425273",
"      .      ",
"      .      ",
"     ++.     ",
"     ++.     ",
"    ++++.    ",
"    ++++.    ",
"   ++++++.   ",
"   ++++++.   ",
"  ++++++++.  ",
"  +@+++++@.  ",
" ++++++++++. ",
" +@+++++++@. ",
"+++.+@+@..++.",
"++. +@+@. .+.",
"..  +@+@.  ..",
"    +@+@.    ",
"    +@+@.    ",
"    +@+@.    ",
"    .....    "};
