/* XPM */
static char * zoom_in_xpm[] = {
"20 20 151 2",
"  	c None",
". 	c #262625",
"+ 	c #272726",
"@ 	c #252624",
"# 	c #252523",
"$ 	c #3C3C3B",
"% 	c #50504F",
"& 	c #D2D2CE",
"* 	c #EAEAE4",
"= 	c #E6E6DF",
"- 	c #E2E2DA",
"; 	c #DDDED4",
"> 	c #61615D",
", 	c #43433F",
"' 	c #B5B5B2",
") 	c #F2F2EF",
"! 	c #F2F2EE",
"~ 	c #EEEEEA",
"{ 	c #E5E5DE",
"] 	c #E0E0D8",
"^ 	c #DBDBD1",
"/ 	c #C3C4B9",
"( 	c #54544F",
"_ 	c #252524",
": 	c #BBBBB8",
"< 	c #F5F5F2",
"[ 	c #F8F8F5",
"} 	c #F7F7F5",
"| 	c #EDEDE8",
"1 	c #E7E8E1",
"2 	c #DCDCD3",
"3 	c #D6D7CB",
"4 	c #B9BAAE",
"5 	c #52524D",
"6 	c #282827",
"7 	c #FDFDFC",
"8 	c #FAFAF9",
"9 	c #D3D3D0",
"0 	c #868783",
"a 	c #E3E3DB",
"b 	c #D6D7CC",
"c 	c #D0D1C4",
"d 	c #666760",
"e 	c #777777",
"f 	c #000000",
"g 	c #EBEBE6",
"h 	c #F0F0EC",
"i 	c #F5F5F3",
"j 	c #F9F9F6",
"k 	c #CBCBC8",
"l 	c #72736F",
"m 	c #E2E2DB",
"n 	c #DDDDD3",
"o 	c #CACBBD",
"p 	c #43433E",
"q 	c #E9E9E2",
"r 	c #F1F1ED",
"s 	c #BEBEBB",
"t 	c #A3A3A1",
"u 	c #868684",
"v 	c #4C4C4A",
"w 	c #969691",
"x 	c #92938C",
"y 	c #D5D6C9",
"z 	c #CFD0C2",
"A 	c #CACABB",
"B 	c #44443F",
"C 	c #9F9F9F",
"D 	c #E9E9E3",
"E 	c #ECECE7",
"F 	c #4F4F4D",
"G 	c #D3D3C7",
"H 	c #CECEC0",
"I 	c #C8C9B9",
"J 	c #43443E",
"K 	c #E1E1D9",
"L 	c #E4E4DD",
"M 	c #E6E7E0",
"N 	c #B3B3AE",
"O 	c #999995",
"P 	c #7F7F7B",
"Q 	c #494946",
"R 	c #91918A",
"S 	c #8E8E87",
"T 	c #CBCCBD",
"U 	c #C6C7B7",
"V 	c #4D4D47",
"W 	c #A1A1A1",
"X 	c #DCDDD3",
"Y 	c #DFDFD7",
"Z 	c #BBBBB4",
"` 	c #6C6D67",
" .	c #D7D8CC",
"..	c #D2D3C6",
"+.	c #CDCEC0",
"@.	c #C8C9BA",
"#.	c #C3C4B4",
"$.	c #44453F",
"%.	c #242422",
"&.	c #D9DACF",
"*.	c #DBDBD0",
"=.	c #DBDCD2",
"-.	c #BCBCB3",
";.	c #232321",
">.	c #7B7C75",
",.	c #D1D2C6",
"'.	c #CECFC1",
").	c #C9CABA",
"!.	c #C5C6B5",
"~.	c #616259",
"{.	c #7F7F7F",
"].	c #BEBEBE",
"^.	c #181816",
"/.	c #A5A69C",
"(.	c #D5D6CA",
"_.	c #D4D5C9",
":.	c #D3D3C6",
"<.	c #C9CABB",
"[.	c #C5C6B6",
"}.	c #ACAD9D",
"|.	c #60605A",
"1.	c #949494",
"2.	c #9C9D93",
"3.	c #D0D0C3",
"4.	c #CECFC2",
"5.	c #CDCEBF",
"6.	c #B1B2A2",
"7.	c #8E8E8E",
"8.	c #222222",
"9.	c #555553",
"0.	c #444540",
"a.	c #B3B4A7",
"b.	c #C8C8B8",
"c.	c #C6C6B6",
"d.	c #C3C4B3",
"e.	c #57574F",
"f.	c #4A4B46",
"g.	c #1A1A1A",
"h.	c #A7A7A7",
"i.	c #ABABAB",
"j.	c #9E9E9E",
"k.	c #656663",
"l.	c #333330",
"m.	c #232320",
"n.	c #2C2C29",
"o.	c #4D4D4A",
"p.	c #939392",
"q.	c #A4A4A4",
"r.	c #2A2A2A",
"s.	c #A9A9A9",
"t.	c #2F2F2F",
"                  . + . @ #             ",
"              $ % & * = - ; > ,         ",
"            $ ' ) ! ~ * { ] ^ / (       ",
"          _ : < [ } ) | 1 - 2 3 4 5     ",
"          6 ! } 7 8 9 6 0 a ; b c d e   ",
"        f g h i j [ k f l m n 3 c o p   ",
"        f q | r s t u f v w x y z A B C ",
"        f { D E F f f f f f f G H I J C ",
"        f K L M N O P f Q R S c T U V W ",
"        f X Y K - - Z f `  ...+.@.#.$.C ",
"          %.&.*.=.^ -.;.>.,.'.).!.~.{.].",
"          ^./.(.(.(._.:.c +.<.[.}.|.1.  ",
"          f ;.2.3.3.4.5.T @.!.6.|.7.].  ",
"        f f 8.9.0.a.<.b.c.d.e.f.1.].    ",
"      f f g.h.i.j.k.l.m.n.o.p.q.].      ",
"    f f g.].].      ].].].].].          ",
"  f f r.s.].                            ",
"  f t.j.].                              ",
"    j.].                                ",
"                                        "};
