/* XPM */
static char * zoom_out_xpm[] = {
"20 20 153 2",
"  	c None",
". 	c #262625",
"+ 	c #272726",
"@ 	c #252624",
"# 	c #252523",
"$ 	c #3C3C3B",
"% 	c #50504F",
"& 	c #D2D2CE",
"* 	c #EAEAE4",
"= 	c #E6E6DF",
"- 	c #E2E2DA",
"; 	c #DDDED4",
"> 	c #61615D",
", 	c #43433F",
"' 	c #B5B5B2",
") 	c #F2F2EF",
"! 	c #F2F2EE",
"~ 	c #EEEEEA",
"{ 	c #E5E5DE",
"] 	c #E0E0D8",
"^ 	c #DBDBD1",
"/ 	c #C3C4B9",
"( 	c #54544F",
"_ 	c #252524",
": 	c #BBBBB8",
"< 	c #F5F5F2",
"[ 	c #F8F8F5",
"} 	c #F7F7F5",
"| 	c #EDEDE8",
"1 	c #E7E8E1",
"2 	c #DCDCD3",
"3 	c #D6D7CB",
"4 	c #B9BAAE",
"5 	c #52524D",
"6 	c #282827",
"7 	c #FDFDFC",
"8 	c #FAFAF9",
"9 	c #F4F4F1",
"0 	c #E8E8E2",
"a 	c #E3E3DB",
"b 	c #D6D7CC",
"c 	c #D0D1C4",
"d 	c #666760",
"e 	c #777777",
"f 	c #000000",
"g 	c #EBEBE6",
"h 	c #F0F0EC",
"i 	c #F5F5F3",
"j 	c #F9F9F6",
"k 	c #F3F3EF",
"l 	c #EDEDE9",
"m 	c #E7E8E2",
"n 	c #E2E2DB",
"o 	c #DDDDD3",
"p 	c #CACBBD",
"q 	c #43433E",
"r 	c #E9E9E2",
"s 	c #F1F1ED",
"t 	c #BEBEBB",
"u 	c #A3A3A1",
"v 	c #A0A09D",
"w 	c #9D9D9A",
"x 	c #9A9A95",
"y 	c #969691",
"z 	c #92938C",
"A 	c #D5D6C9",
"B 	c #CFD0C2",
"C 	c #CACABB",
"D 	c #44443F",
"E 	c #9F9F9F",
"F 	c #E9E9E3",
"G 	c #ECECE7",
"H 	c #4F4F4D",
"I 	c #D3D3C7",
"J 	c #CECEC0",
"K 	c #C8C9B9",
"L 	c #43443E",
"M 	c #E1E1D9",
"N 	c #E4E4DD",
"O 	c #E6E7E0",
"P 	c #B3B3AE",
"Q 	c #999995",
"R 	c #989893",
"S 	c #94948E",
"T 	c #91918A",
"U 	c #8E8E87",
"V 	c #CBCCBD",
"W 	c #C6C7B7",
"X 	c #4D4D47",
"Y 	c #A1A1A1",
"Z 	c #DCDDD3",
"` 	c #DFDFD7",
" .	c #DEDED5",
"..	c #DADBD0",
"+.	c #D7D8CC",
"@.	c #D2D3C6",
"#.	c #CDCEC0",
"$.	c #C8C9BA",
"%.	c #C3C4B4",
"&.	c #44453F",
"*.	c #242422",
"=.	c #D9DACF",
"-.	c #DBDBD0",
";.	c #DBDCD2",
">.	c #DADAD0",
",.	c #D8D8CD",
"'.	c #D5D6CA",
").	c #D1D2C6",
"!.	c #CECFC1",
"~.	c #C9CABA",
"{.	c #C5C6B5",
"].	c #616259",
"^.	c #7F7F7F",
"/.	c #BEBEBE",
"(.	c #181816",
"_.	c #A5A69C",
":.	c #D4D5C9",
"<.	c #D3D3C6",
"[.	c #C9CABB",
"}.	c #C5C6B6",
"|.	c #ACAD9D",
"1.	c #60605A",
"2.	c #949494",
"3.	c #232321",
"4.	c #9C9D93",
"5.	c #D0D0C3",
"6.	c #CECFC2",
"7.	c #CDCEBF",
"8.	c #B1B2A2",
"9.	c #8E8E8E",
"0.	c #222222",
"a.	c #555553",
"b.	c #444540",
"c.	c #B3B4A7",
"d.	c #C8C8B8",
"e.	c #C6C6B6",
"f.	c #C3C4B3",
"g.	c #57574F",
"h.	c #4A4B46",
"i.	c #1A1A1A",
"j.	c #A7A7A7",
"k.	c #ABABAB",
"l.	c #9E9E9E",
"m.	c #656663",
"n.	c #333330",
"o.	c #232320",
"p.	c #2C2C29",
"q.	c #4D4D4A",
"r.	c #939392",
"s.	c #A4A4A4",
"t.	c #2A2A2A",
"u.	c #A9A9A9",
"v.	c #2F2F2F",
"                  . + . @ #             ",
"              $ % & * = - ; > ,         ",
"            $ ' ) ! ~ * { ] ^ / (       ",
"          _ : < [ } ) | 1 - 2 3 4 5     ",
"          6 ! } 7 8 9 ~ 0 a ; b c d e   ",
"        f g h i j [ k l m n o 3 c p q   ",
"        f r | s t u v w x y z A B C D E ",
"        f { F G H f f f f f f I J K L E ",
"        f M N O P Q R y S T U c V W X Y ",
"        f Z ` M - - ]  ...+.@.#.$.%.&.E ",
"          *.=.-.;.^ >.,.'.).!.~.{.].^./.",
"          (._.'.'.'.:.<.c #.[.}.|.1.2.  ",
"          f 3.4.5.5.6.7.V $.{.8.1.9./.  ",
"        f f 0.a.b.c.[.d.e.f.g.h.2./.    ",
"      f f i.j.k.l.m.n.o.p.q.r.s./.      ",
"    f f i././.      /././././.          ",
"  f f t.u./.                            ",
"  f v.l./.                              ",
"    l./.                                ",
"                                        "};
