/* XPM */
static char * zoom_fit_xpm[] = {
"20 20 150 2",
"  	c None",
". 	c #262625",
"+ 	c #272726",
"@ 	c #252624",
"# 	c #252523",
"$ 	c #3C3C3B",
"% 	c #50504F",
"& 	c #D2D2CE",
"* 	c #DDDDD7",
"= 	c #999994",
"- 	c #BCBCB5",
"; 	c #DDDED4",
"> 	c #61615D",
", 	c #43433F",
"' 	c #B5B5B2",
") 	c #F2F2EF",
"! 	c #F2F2EE",
"~ 	c #636361",
"{ 	c #000000",
"] 	c #393937",
"^ 	c #BABAB3",
"/ 	c #DBDBD1",
"( 	c #C3C4B9",
"_ 	c #54544F",
": 	c #252524",
"< 	c #BBBBB8",
"[ 	c #F5F5F2",
"} 	c #F8F8F5",
"| 	c #6D6D6C",
"1 	c #323230",
"2 	c #C3C4BB",
"3 	c #D6D7CB",
"4 	c #B9BAAE",
"5 	c #52524D",
"6 	c #282827",
"7 	c #F7F7F5",
"8 	c #FDFDFC",
"9 	c #D8D8D7",
"0 	c #AAAAA8",
"a 	c #60605D",
"b 	c #BDBDB6",
"c 	c #D7D7CE",
"d 	c #D6D7CC",
"e 	c #D0D1C4",
"f 	c #666760",
"g 	c #777777",
"h 	c #EBEBE6",
"i 	c #E3E3DF",
"j 	c #666664",
"k 	c #A6A6A5",
"l 	c #CBCBC8",
"m 	c #72736F",
"n 	c #E2E2DB",
"o 	c #DDDDD3",
"p 	c #1D1D1C",
"q 	c #CACBBD",
"r 	c #43433E",
"s 	c #DCDCD6",
"t 	c #696967",
"u 	c #A3A3A1",
"v 	c #868684",
"w 	c #4C4C4A",
"x 	c #969691",
"y 	c #92938C",
"z 	c #2D2E2A",
"A 	c #A8A89C",
"B 	c #44443F",
"C 	c #9F9F9F",
"D 	c #BEBEB8",
"E 	c #63635B",
"F 	c #43443E",
"G 	c #D4D5CC",
"H 	c #646461",
"I 	c #666663",
"J 	c #999995",
"K 	c #7F7F7B",
"L 	c #494946",
"M 	c #91918A",
"N 	c #8E8E87",
"O 	c #2C2C29",
"P 	c #A4A597",
"Q 	c #4D4D47",
"R 	c #A1A1A1",
"S 	c #DCDDD3",
"T 	c #D2D3CA",
"U 	c #5D5D5A",
"V 	c #979791",
"W 	c #E2E2DA",
"X 	c #BBBBB4",
"Y 	c #6C6D67",
"Z 	c #D7D8CC",
"` 	c #D2D3C6",
" .	c #1C1C1A",
"..	c #B1B2A5",
"+.	c #C3C4B4",
"@.	c #44453F",
"#.	c #242422",
"$.	c #D9DACF",
"%.	c #DBDBD0",
"&.	c #DBDCD2",
"*.	c #BDBDB5",
"=.	c #989891",
"-.	c #585954",
";.	c #AFB0A5",
">.	c #C8C9BC",
",.	c #C9CABA",
"'.	c #C5C6B5",
").	c #616259",
"!.	c #7F7F7F",
"~.	c #BEBEBE",
"{.	c #181816",
"].	c #A5A69C",
"^.	c #D5D6CA",
"/.	c #5E5E59",
"(.	c #2D2D2A",
"_.	c #B3B3A6",
":.	c #C5C6B6",
"<.	c #ACAD9D",
"[.	c #60605A",
"}.	c #949494",
"|.	c #232321",
"1.	c #9C9D93",
"2.	c #D0D0C3",
"3.	c #555550",
"4.	c #32322E",
"5.	c #A6A79A",
"6.	c #B1B2A2",
"7.	c #8E8E8E",
"8.	c #222222",
"9.	c #555553",
"0.	c #444540",
"a.	c #B3B4A7",
"b.	c #BEBEB0",
"c.	c #84847A",
"d.	c #C3C4B3",
"e.	c #57574F",
"f.	c #4A4B46",
"g.	c #1A1A1A",
"h.	c #A7A7A7",
"i.	c #ABABAB",
"j.	c #9E9E9E",
"k.	c #656663",
"l.	c #333330",
"m.	c #232320",
"n.	c #4D4D4A",
"o.	c #939392",
"p.	c #A4A4A4",
"q.	c #2A2A2A",
"r.	c #A9A9A9",
"s.	c #2F2F2F",
"                  . + . @ #             ",
"              $ % & * = - ; > ,         ",
"            $ ' ) ! ~ { ] ^ / ( _       ",
"          : < [ } | { { { 1 2 3 4 5     ",
"          6 ! 7 8 9 0 { a b c d e f g   ",
"        { h i j k } l { m n o p 4 q r   ",
"        { s t { | u v { w x y { z A B C ",
"        { D { { { { { { { { { { { E F C ",
"        { G H { I J K { L M N { O P Q R ",
"        { S T U V W X { Y Z `  ...+.@.C ",
"          #.$.%.&.*.=.{ -.;.>.,.'.).!.~.",
"          {.].^.^./.{ { { (._.:.<.[.}.  ",
"          { |.1.2.2.3.{ 4.5.'.6.[.7.~.  ",
"        { { 8.9.0.a.b.c.P d.e.f.}.~.    ",
"      { { g.h.i.j.k.l.m.O n.o.p.~.      ",
"    { { g.~.~.      ~.~.~.~.~.          ",
"  { { q.r.~.                            ",
"  { s.j.~.                              ",
"    j.~.                                ",
"                                        "};
